<?xml version="1.0" encoding="utf-8"?>
<!-- Generator: Adobe Illustrator 27.9.0, SVG Export Plug-In . SVG Version: 6.00 Build 0)  -->
<svg version="1.1" id="Layer_1" xmlns="http://www.w3.org/2000/svg" xmlns:xlink="http://www.w3.org/1999/xlink" x="0px" y="0px"
	 viewBox="0 0 100 100" style="enable-background:new 0 0 100 100;" xml:space="preserve">
<style type="text/css">
	.st0{fill:#BF9161;}
	.st1{fill:#3B1712;}
	.st2{fill:#FFFFFF;}
</style>
<g>
	<g>
		<g>
			<path class="st0" d="M74.01,76.14c-0.06-0.01-0.12-0.11-0.1-0.14c0.05-0.06,0.14,0.03,0.15,0.09c0.46-0.44,0.91-0.89,1.35-1.35
				c-0.04,0-0.08,0.01-0.15,0.04c-0.01-0.13,0.09-0.17,0.11-0.28l0.26-0.03c0,0.01,0.01,0.02,0.01,0.02
				c2.84-3.05,5.14-6.59,6.8-10.46c-0.11,0.04-0.24-0.08-0.37-0.17c0.13-0.08,0.28-0.1,0.43,0.02c1.85-4.4,2.84-9.23,2.78-14.24
				c0,0,0,0,0,0c-0.1,0.01-0.07-0.18-0.02-0.19c0.01,0,0.01,0.01,0.02,0.01c-0.01-0.31-0.01-0.62-0.02-0.93
				c-0.03-0.15-0.04-0.31-0.02-0.43c0-0.09-0.02-0.17-0.02-0.26c-0.11-0.12-0.12-0.25-0.07-0.39c-0.3-0.14-0.7-0.23-0.35-0.64
				c0.01,0.1,0.19,0.37,0.38,0.52c-0.03-0.32-0.04-0.63-0.07-0.94c-0.3-2.99-0.96-5.86-1.94-8.57l-0.14-0.12l0.07-0.09
				c-0.78-2.13-1.76-4.15-2.9-6.05c-0.01,0-0.05,0.01-0.15,0.03c-0.41,0.02,0.1-0.04,0.15-0.03c-0.48-0.79-0.99-1.57-1.52-2.32
				l-0.01,0.01c-0.01-0.01-0.01-0.03-0.01-0.04c-0.36-0.51-0.74-1.01-1.12-1.49c-0.08,0.03-0.16,0.06-0.24,0.05
				c-0.13-0.11-0.11-0.25-0.02-0.39c-0.97-1.18-2.01-2.3-3.11-3.35c-0.21,0.17-0.46,0.29-0.69,0.58c-0.11-0.01-0.22,0.07-0.34,0.05
				c1.66,1.55,3.17,3.26,4.5,5.11c-0.01-0.06,0.01-0.13,0.04-0.13c0.1-0.01,0.07,0.18,0.02,0.19c-0.01,0-0.02-0.01-0.03-0.01
				c0.48,0.67,0.94,1.35,1.37,2.05c0.03-0.01,0.07-0.01,0.1,0.02c0,0.04-0.01,0.08-0.01,0.11c0.21,0.35,0.41,0.7,0.61,1.06
				c0.03-0.03,0.04-0.06,0.08-0.1c0,0.19,0.17,0.36,0.17,0.54c0.25,0.46,0.49,0.92,0.71,1.39c0.03,0.01,0.04,0.05,0.04,0.09
				c0.05,0.11,0.1,0.23,0.15,0.34c0.02-0.06,0.07-0.12,0.1-0.18c0.09,0.08-0.01,0.18-0.06,0.27c1.57,3.41,2.63,7.14,3.03,11.1
				c1.91,18.96-11.75,35.89-30.51,37.81c-4.51,0.46-8.91,0.01-13.01-1.2c-0.13,0.21,0.06,0.68-0.46,0.56
				c0.05-0.21,0.04-0.48,0.12-0.66c-2.87-0.88-5.59-2.14-8.1-3.72c0.02,0.06,0.03,0.13,0.05,0.18c-0.13,0.01-0.12-0.15-0.16-0.25
				c-0.98-0.62-1.92-1.29-2.83-2c-0.01,0.04-0.03,0.07-0.04,0.13c-0.19-0.03-0.09-0.1-0.06-0.2c-0.06-0.04-0.11-0.08-0.16-0.13
				c-0.21,0.2-0.31,0-0.49-0.14c-0.38,0.01,0.24,0.86-0.33,0.71c-0.02-0.33-0.04-0.65-0.21-0.79c-0.23,0.28-0.33,0.05-0.67,0.07
				c-0.31,0.07,0.19,0.35,0.31,0.38c0.01,0.06,0,0.09-0.01,0.13c0.53,0.45,1.08,0.89,1.64,1.31c0.04-0.16,0.24,0.1,0.24-0.14
				c0.15,0.02,0.12,0.26,0.29,0.24c0,0.1-0.09,0.13-0.19,0.14c0.29,0.22,0.6,0.41,0.9,0.62c-0.08-0.08-0.12-0.17-0.12-0.28
				c0.16-0.19,0.48-0.23,0.54,0.08c0.26-0.1,0.22-0.43,0.52-0.19c0.12,0.11,0.17,0.29,0.19,0.52c-0.07,0.44-0.2-0.22-0.18-0.39
				l-0.27,0.03c-0.16,0.05-0.13,0.42,0.04,0.4c-0.03,0.1-0.3,0.07-0.53-0.04c0.21,0.14,0.41,0.29,0.62,0.42
				c-0.02-0.05-0.01-0.1,0.07-0.13c0.13,0.01,0.15,0.16,0.09,0.23c0.15,0.09,0.3,0.19,0.45,0.28c0.12-0.02,0.24,0,0.33,0.08
				c-0.01,0.04-0.02,0.08-0.05,0.1c1.04,0.63,2.12,1.2,3.23,1.72c-0.04-0.19,0.01-0.4,0.16-0.53c0.33-0.02,0.31,0.4,0.34,0.76
				c5.43,2.44,11.54,3.53,17.86,2.88C61.51,84.69,68.58,81.26,74.01,76.14z M25.94,74.57c-0.55-0.03-0.89-0.31-1.02-0.85
				c0.28,0.01,0.3,0.33,0.45,0.5c0.13,0.01,0.27,0.01,0.38,0.05c-2.02-2.06-3.78-4.38-5.24-6.91c0.04,0.09,0.06,0.2,0.04,0.31
				c-0.38-0.03-0.26-0.68-0.85-0.45c0.18-0.28,0.58-0.19,0.76,0.07c-2.35-4.11-3.91-8.77-4.42-13.8
				C14.41,37.25,24.2,22.51,38.84,17.4c-0.17-0.06-0.18-0.42-0.16-0.61c0.32-0.2,0.28,0.37,0.42,0.52c2.37-0.8,4.86-1.36,7.44-1.63
				c9.62-0.99,18.71,2.17,25.54,8.03c0.1-0.27,0.24-0.54,0.56-0.83c0.08-0.04,0.15-0.03,0.23-0.03c-7.08-6.09-16.5-9.38-26.45-8.36
				c-1.9,0.19-3.74,0.54-5.53,1.03c-0.02,0.03-0.04,0.06-0.06,0.09c0-0.02,0-0.05-0.01-0.07c-11.64,3.16-20.7,12.11-24.36,23.33
				c0.03,0,0.06,0,0.08,0.02c0.11,0.16-0.06,0.1-0.16,0.2c-1.45,4.55-2.03,9.47-1.52,14.52c0.45,4.51,1.73,8.74,3.66,12.55
				c0.22-0.1,0.54-0.02,0.55,0.3c-0.11-0.01-0.15-0.12-0.28-0.11c-0.05,0.03-0.09,0.06-0.13,0.09c0.64,1.24,1.34,2.43,2.1,3.58
				l-0.01-0.08l0.4-0.04l0.04,0.4c-0.14,0.04-0.2-0.02-0.27-0.06c1.08,1.57,2.28,3.05,3.58,4.42c-0.04-0.05-0.05-0.15-0.08-0.22
				c0.13-0.01,0.12,0.15,0.16,0.26c-0.03,0-0.05-0.01-0.07-0.02c0.51,0.54,1.03,1.06,1.58,1.56c0-0.07-0.01-0.18-0.05-0.33
				c0.15,0.26,0.7,0.04,0.72,0.47c0.39-0.03,0.87-0.05,1.26,0.03c-0.73-0.62-1.45-1.27-2.12-1.95
				C25.93,74.49,25.94,74.52,25.94,74.57z"/>
			<g>
				<path class="st1" d="M54.03,74.1c0,0,1.98-0.47,2.44-2.43c0.91-3.88,1.19-6.07,4.12-6.84c0,0-2.48-0.04-4.15,1.13
					c-1.67,1.16-2.16,2.5-2.16,2.5S54.73,69.9,54.03,74.1z"/>
				<path class="st1" d="M42.36,61.06c0,0-1.9,2.11,1.02,4.56c2.28,1.92,6.03,3,6.82,6.01c0.79,3.01,0.07,4.72,0.07,4.72
					s2.47-2.68,1.54-7.24C50.51,62.7,44.08,60.96,42.36,61.06z"/>
				<path class="st1" d="M41.57,60.54c0,0-2.92,3.4,0.47,6.68c2.43,2.35,6.37,3.03,7.28,8.22c0.91,5.18-5,3.77-7.37,2.32
					c-1.62-1-4.6-4.12-5.49-8.28c-0.41-1.93-0.3-4.15,0.79-6.3C38.41,60.87,41.57,60.54,41.57,60.54z"/>
				<path class="st2" d="M39.09,71.48c0,0,2.84,6.22,8.11,5.97c0,0-0.06-1.21-0.57-1.4C46.64,76.05,41.56,75.77,39.09,71.48z"/>
				<path class="st1" d="M53.75,75.26l-0.8,2.26c0,0,6.77,3.84,9.98-5.93c3.21-9.77-4.05-6.6-4.47-3.42
					C58.12,70.83,57.98,75.93,53.75,75.26z"/>
				<path class="st2" d="M54.12,76.92c0,0,4.5,1.8,6.95-3.67c0,0-2.32,4.39-6.72,3L54.12,76.92z"/>
			</g>
			<path class="st1" d="M78.7,12.74c0.04-0.32-0.03-0.54-0.28-0.57C78.19,12.38,78.26,12.81,78.7,12.74z M73.04,9.52
				c-0.02,0-0.04,0-0.05,0l-0.14,0.01c-0.02,0.04-0.04,0.07-0.07,0.08C72.83,9.78,72.98,9.66,73.04,9.52z M30.27,12.78
				c-0.09,0-0.19,0-0.29,0c-0.01,0.05,0,0.1,0.02,0.14C30.09,12.88,30.18,12.83,30.27,12.78z M31.42,12.18
				c-0.31-0.44-0.37,0.04-0.58,0.16c-0.43-0.22,0.05-0.43,0.21-0.65c-0.18-0.27-0.36-0.21-0.54-0.32c-0.1,0.11,0.05,0.22,0.1,0.32
				c-0.14,0.21-0.28,0.08-0.43,0.22c-0.22,0.41,0.41,0.28,0.53,0.54c-0.06,0.05-0.1,0.1-0.12,0.15
				C30.88,12.46,31.15,12.32,31.42,12.18z M31.7,10.83c-0.13,0.26-0.76,0.13-0.54,0.54c0.21-0.25,0.43,0.33,0.64,0.43
				c0.1-0.3,0.68-0.04,0.43-0.43c-0.18,0.07-0.36,0.13-0.53,0.11c0.3-0.28,0.04-0.4,0.43-0.43c-0.45-0.22-0.33-0.23-0.43-0.65
				c-0.21,0.1-0.43,0.11-0.64,0.21C31.27,11.1,31.48,10.35,31.7,10.83z M29.44,13.26c0.12-0.07,0.24-0.14,0.36-0.21
				c-0.26-0.23-0.52-0.82-0.78-0.37C29.45,12.88,29.37,12.91,29.44,13.26z M28.61,13.74c0.09-0.06,0.19-0.11,0.29-0.17
				c-0.03-0.02-0.06-0.02-0.09-0.04C28.74,13.61,28.67,13.67,28.61,13.74z M77.03,88.85c-0.14,0.28-0.26,0.58-0.25,0.87
				c0,0,0,0,0,0.01c0.13-0.06,0.25-0.13,0.38-0.2c-0.01,0-0.02,0-0.03-0.01C77.21,89.18,77.1,89.04,77.03,88.85z M29.12,11.7
				c0-0.06-0.21-0.11-0.21,0C28.91,11.76,29.12,11.81,29.12,11.7z M29.34,12.13c-0.32,0.48-0.64-0.28-0.96-0.11
				c0.54,0.23,0.3,1,0.64,0.87c-0.1-0.14-0.04-0.29,0-0.43C29.16,12.34,29.45,12.4,29.34,12.13z M29.88,11.8l-0.22-0.21
				c-0.14,0.13-0.28,0.01-0.43,0.21l0.32,0.33L29.88,11.8z M75.51,86.36c0,0.08,0.11,0.16,0.14,0
				C75.65,86.28,75.54,86.2,75.51,86.36z M85.31,74.2c0.06-0.01,0.12-0.02,0.18-0.03c0.03-0.04,0.07-0.08,0.1-0.12
				C85.48,74.08,85.32,74.06,85.31,74.2z M85.16,73.28c0.01,0.21-0.07,0.34-0.15,0.46c0.31-0.09,1.05,0.25,0.9-0.31
				C85.44,73.61,85.52,73.51,85.16,73.28z M23.13,21.23c0,0.06,0.21,0.11,0.21,0C23.34,21.17,23.13,21.11,23.13,21.23z M85.47,72.31
				c-0.11,0.17-0.22,0.34-0.33,0.51c0.1-0.06,0.2-0.12,0.33-0.15V72.31z M85.77,73.28c0.15,0.03,0.22,0.14,0.28,0.26
				c0.06-0.06,0.12-0.12,0.17-0.18C86.01,73.23,85.85,73.09,85.77,73.28z M71.66,13.87c0.04-0.04-0.07-0.21-0.14-0.14
				c-0.02,0.02,0,0.07,0.03,0.11c0.02,0.01,0.04,0.03,0.07,0.04C71.62,13.89,71.64,13.89,71.66,13.87z M70.39,10.17
				c-0.07-0.12-0.21-0.17-0.37-0.2c-0.02,0.08-0.03,0.15-0.05,0.23c0.05,0.08,0.1,0.17,0.14,0.26
				C70.26,10.42,70.2,10.18,70.39,10.17z M30.2,11.7c0-0.06-0.21-0.11-0.21,0C29.98,11.76,30.2,11.81,30.2,11.7z M70.25,9.89
				c0.03-0.03-0.01-0.11-0.06-0.14l-0.08,0.01C70.08,9.81,70.18,9.96,70.25,9.89z M90.29,66.15c0.25-0.02,0.87,0.32,1.13,0.14
				C90.9,66.19,90.76,65.62,90.29,66.15z M84.56,73.72c-0.19,0.28-0.39,0.56-0.59,0.84c0.07,0.16,0.2,0.26,0.13,0.56
				c-0.05-0.05-0.09-0.08-0.13-0.09c-0.01,0.06-0.12,0.12-0.15,0.09c-0.03-0.03-0.02-0.06,0.01-0.09c-0.07,0.02-0.15,0.06-0.25,0.09
				c-0.08,0.1-0.15,0.21-0.23,0.31c0.12,0.43-0.22,0.4-0.15,0.76c-0.11-0.06-0.16-0.18-0.2-0.31c-0.5,0.66-1.03,1.3-1.57,1.92
				c0.08,0.02,0.17,0.05,0.26,0.07c-0.01,0.2-0.22,0.19-0.46,0.16c-1.04,1.18-2.15,2.29-3.3,3.35c0.03,0.07,0.06,0.12,0.13,0.14
				c-0.48,0.28-0.75,0.76-0.99,1.28c-0.26-0.07-0.32-0.24-0.27-0.43c-0.26,0.22-0.51,0.44-0.77,0.65c0.02,0.02,0.04,0.03,0.06,0.06
				c0.04,0.36-0.3,0.34-0.6,0.37c-0.61,0.47-1.22,0.93-1.85,1.36c-0.02,0.04-0.05,0.06-0.1,0.07c-2.53,1.75-5.26,3.22-8.15,4.38
				c0.04,0.17,0.06,0.36,0.09,0.55c-0.19-0.08-0.31-0.23-0.38-0.44c-4.68,1.84-9.77,2.86-15.08,2.86c-6.68,0-12.99-1.6-18.59-4.43
				c-0.29,0.21-0.51,0.47-0.46,1.02c-0.52,0.02-0.71-0.3-0.95-0.55c0.07-0.42,0.35-0.62,0.57-0.91c-0.51-0.27-1.02-0.56-1.52-0.85
				c-0.05,0.07-0.14,0.12-0.21,0.17c-0.16,0.34,0.01,1.02-0.55,0.96c-0.18-0.36,0.24-0.48,0.14-0.96c0.01-0.2,0.16-0.26,0.24-0.39
				c-0.43-0.26-0.85-0.53-1.28-0.81c-0.03,0.16-0.09,0.28-0.19,0.37c0.01,0.29,0.26,0.33,0.27,0.62c0.01,0.35-0.2,0.49-0.27,0.76
				c0.17,0.3,0.41-0.17,0.68,0.07c0.05,0.35-0.21,0.38-0.14,0.76c-0.02,0.28,0.31,0.19,0.34,0.42c0.07,0.18,0.27,0.23,0.34,0.41
				c-0.06,0.86-0.37,1.47-1.43,1.31c-0.11-0.19-0.1-0.5-0.21-0.69c-0.12-0.2-0.4-0.24-0.55-0.41c-0.07-0.43-0.32-0.69-0.27-1.24
				c-0.01-0.28-0.4-0.19-0.27-0.62c-0.2-0.28-0.57-0.39-0.68-0.76c-0.46-0.13-0.98-0.5-1.57-0.28c-0.27-0.07-0.42-0.27-0.61-0.41
				c-0.24-0.08-0.49-0.15-0.41-0.55c0.46-0.07,0.66-0.39,1.16-0.42c0.3-0.11,0.34-0.48,0.61-0.62c0.39,0.05,0.62-0.06,0.89-0.14
				c0.28,0.13,0.45,0.38,0.68,0.55c0.1,0,0.15-0.04,0.2-0.1c-1.94-1.38-3.75-2.93-5.43-4.62c-0.13,0.1-0.26,0.19-0.44,0.23
				c-0.16-0.12-0.22-0.33-0.34-0.48c-0.17-0.08-0.2-0.31-0.2-0.55c0.04-0.03,0.1-0.05,0.15-0.07c-4.48-4.78-7.87-10.62-9.76-17.1
				C9.8,62.01,9.5,62.02,9.5,61.84c0.01-0.21,0.18-0.25,0.33-0.24c-0.42-1.49-0.77-3.01-1.04-4.57c-0.03,0.01-0.07,0.02-0.14,0.03
				C8.26,57,8.66,56.97,8.8,57C8.42,54.72,8.21,52.39,8.21,50c0-12.25,5.19-23.29,13.46-31.01v-0.28c0.15-0.06,0.21-0.02,0.24,0.04
				c0.13-0.12,0.27-0.23,0.4-0.35c-0.07-0.04-0.01-0.12,0.06-0.12c0.02,0,0.03,0.01,0.05,0.02c1.81-1.61,3.75-3.08,5.82-4.36
				c0-0.17,0.08-0.35,0.23-0.52c-0.32-0.23-0.64-0.35-0.97-0.33c0-0.41,0.12-0.28-0.32-0.54c0.3-0.22,0.04-0.43,0.43-0.65
				c0.2,0.14,0.08,0.29,0.21,0.43c0.28-0.18,0.05-0.36-0.11-0.54c0.18-0.02,0.36,0.03,0.53,0.11c-0.01-0.46,0.18-0.63,0.64-0.43
				c-0.32-0.39,0.45-0.5,0.64-1.08c-0.2-0.22-0.01-0.44,0.02-0.67l-0.84-0.07c0.08,0.07,0.17,0.13,0.28,0.19l-0.43,0.44
				c-0.21-0.18-0.09-0.36-0.32-0.54c-0.11-0.1-0.21,0.05-0.32,0.11c-0.15-0.09-0.13-0.18-0.11-0.27L27.2,9.54
				c-0.01,0.1-0.21,0.06-0.21-0.01c0-0.01,0.01-0.01,0.01-0.01c-1.63-0.13-3.26,0.36-4.64,1.26c0.03,0.04,0.05,0.09,0.03,0.11
				c-0.04,0.04-0.09,0-0.12-0.04c-0.16,0.11-0.32,0.22-0.48,0.34c0.17-0.01,0.41,0.02,0.06,0.07c-0.06-0.01-0.09-0.02-0.12-0.03
				c-1.32,1.06-2.32,2.51-2.71,4.16l-0.86,3.69c-0.83,3.53-4.01,7.96-7.07,9.85l-3.21,1.97c-3.07,1.89-4.44,6.17-3.06,9.51l1.44,3.5
				c1.38,3.35,1.38,8.82,0,12.17l-1.44,3.5c-0.62,1.51-0.68,3.2-0.29,4.78c0.05-0.26,0.32-0.3,0.4-0.52
				c0.4,0.21,0.46,0.78,0.48,1.38c-0.14,0.13-0.45,0.05-0.61,0c0.17,0.45,0.37,0.89,0.61,1.3c-0.06-0.25-0.12-0.51-0.14-0.82
				c0.19-0.1,0.53-0.07,0.75-0.14c0.01-0.27,0.11-0.78,0.21-1.17c0-0.24-0.2-0.26-0.34-0.35c-0.12-0.29-0.22-0.6-0.27-0.97
				c0.25-0.25,0.51-0.5,0.48-1.04c0.16,0.02,0.26-0.01,0.34-0.07c-0.01-0.41-0.59-0.23-0.82-0.41c0.02-0.33,0.3-0.39,0.41-0.62
				c0.21-0.03,0.18,0.19,0.34,0.21c0.33-0.15,0.1-0.38,0.07-0.69c0.2-0.33,0.61-1.06,1.03-0.55c-0.04,0.74-0.25,1.31-0.34,2
				c0.2,0.62,0.22,1.34,0.07,2c0.09,0.41,0.18,0.83,0.14,1.38c-0.14,0.23-0.41,0.32-0.55,0.55c-0.35,0.07-0.34-0.2-0.55-0.28
				c-0.16,0.16,0.01,0.66-0.21,0.76c0.18,0.25,0.14,0.75,0.02,1.12c0.51,0.65,1.13,1.21,1.83,1.65l3.21,1.97
				c3.06,1.89,6.25,6.32,7.07,9.84l0.48,2.05c0.04,0.06,0.08,0.12,0.16,0.14c0.33-0.54,0.3-1.45,1.03-1.59
				c0.26,0.35,0.37,0.87,0.54,1.31c-0.17,0.4-0.11,0.92,0.28,1.11c0.3,0.05,0.28-0.22,0.48-0.28c0.3,0.05,0.41-0.09,0.68-0.07
				c0.31,0.04,0.47,0.21,0.68,0.34c0.33,0.01,0.37-0.33,0.68-0.14c0.21,0.28-0.08,0.53-0.14,0.76c-0.67-0.13-0.77,0.33-1.37,0.28
				c-0.2,0.08-0.12,0.43-0.34,0.49c0.07,0.36,0.44,0.48,0.82,0.34c0.18,0.32,0,0.81-0.14,1.04c-0.38,0.19-0.87,0.27-0.89,0.83
				c-0.13,0.1-0.25,0.21-0.37,0.32c0.19,0.22,0.4,0.42,0.61,0.62c0.03-0.06,0.05-0.13,0.1-0.18c0.2-0.07,0.12,0.15,0.14,0.28
				c0.03,0.06,0.06,0.12,0.09,0.18c0.51,0.41,1.07,0.76,1.66,1.04c0.28-0.2,0.71-0.25,0.71-0.73c0.17-0.01,0.33-0.01,0.41,0.07
				c0.04,0.22-0.05,0.32-0.07,0.48c0.33,0.1,0.54,0.32,0.68,0.62c-0.03,0.05-0.07,0.08-0.1,0.13c0.67,0.15,1.36,0.2,2.05,0.15
				l3.74-0.31c3.58-0.29,8.73,1.4,11.45,3.76l2.85,2.47c0.04,0.04,0.09,0.07,0.13,0.11c0.22-0.13,0.54,0.09,0.49,0.37
				c1.19,0.81,2.61,1.24,4.04,1.28c0,0,0.01-0.01,0.01-0.01c0.08-0.8,0.19-1.55,0.27-2.35c0.15-0.07,0.25-0.21,0.27-0.41
				c0.23-0.09,0.26-0.38,0.55-0.41c0.07-0.18,0.06-0.45,0.34-0.42c0.11,0.3-0.4,0.5-0.41,0.9c-0.14,0.07-0.27,0.14-0.41,0.2
				c0.04,0.28,0.17,0.47,0.27,0.69c-0.06,0.43-0.11,0.86-0.16,1.29c0.04-0.04,0.1-0.07,0.12-0.04c0.07,0.07-0.09,0.17-0.14,0.14
				c-0.01,0.09-0.02,0.18-0.03,0.27c0.6,0.01,0.26-0.93,0.82-0.97c0.09,0.07,0.25,0.07,0.27,0.21c-0.05,0.27-0.09,0.54-0.14,0.81
				c1.31-0.23,2.57-0.78,3.58-1.66l2.84-2.47c1.95-1.69,5.14-3.03,8.11-3.55c0.01-0.07,0.12-0.13,0.16-0.1
				c-0.01-0.07,0-0.14,0.01-0.22h0.42c0.01,0.11-0.02,0.17-0.06,0.24c0.34-0.05,0.67-0.09,1-0.11c-0.21-0.2-0.38-0.43-0.38-0.84
				c0.29,0.15,0.42,0.48,0.51,0.83c0.58-0.04,1.14-0.04,1.67,0l3.74,0.31c1.07,0.09,2.15-0.09,3.15-0.48
				c0.05-0.09,0.12-0.16,0.24-0.19c0-0.3-0.42-0.19-0.31-0.61c0.25,0.02,0.43,0.1,0.55,0.24c0.02-0.08,0.07-0.13,0.15-0.1
				c-0.15-0.47-0.07-1.46,0.28-1.85c0.4,0.31,0.27,0.7,0.08,1.11c0.26,0.04,0.33,0.26,0.3,0.6c0.09,0.03,0.15,0.03,0.21,0.02
				c0.57-0.37,1.09-0.82,1.55-1.31c-0.01-0.05,0-0.09-0.02-0.13c0.04,0.01,0.07,0.03,0.1,0.06c0.25-0.29,0.48-0.59,0.7-0.91h-0.79
				c-0.34-0.33,0.21-0.26,0.14-0.71c-0.24-0.14-0.41-0.45-0.14-0.71c0.37-0.04,0.36,0.3,0.42,0.57c0.32-0.01,0.56,0.05,0.8,0.14
				c0.26-0.51,0.47-1.04,0.6-1.6l0.47-2.01c-0.32-0.1-0.39-0.47-0.54-0.74c0.04-0.04,0.08-0.04,0.12-0.06c-0.01,0-0.03,0-0.04,0.01
				v-0.57c0.28-0.05,0.44,0.03,0.42,0.28c0.1-0.09,0.21-0.09,0.31-0.08l0.12-0.53c0.01-0.04,0.03-0.08,0.03-0.12
				c-0.11,0.11-0.26,0.26-0.05,0.02c0.03-0.03,0.04-0.04,0.06-0.05c0.04-0.17,0.1-0.35,0.16-0.52c-0.03,0.01-0.06,0.02-0.07,0.01
				c-0.06-0.06,0.05-0.15,0.12-0.15c0.02-0.07,0.04-0.14,0.06-0.22c-0.01,0-0.01-0.01-0.03-0.01c0.02-0.05,0.05-0.08,0.07-0.1
				c0.04-0.11,0.08-0.22,0.12-0.32c-0.07-0.02-0.14-0.03-0.2-0.05c0.1-0.43-0.14-0.52-0.14-0.85c0.37-0.05,0.46,0.2,0.42,0.57
				c0.01,0,0.01,0,0.02,0c0,0,0,0,0,0c0.02-0.01,0.02-0.02,0.04-0.03c0.06-0.14,0.13-0.29,0.2-0.43c-0.05,0-0.11-0.02-0.17-0.01
				c-0.02-0.1,0.11-0.16,0.25-0.17c0.06-0.12,0.11-0.24,0.17-0.37c-0.01-0.02-0.03-0.03-0.03-0.06c0.03-0.1,0.06-0.11,0.1-0.09
				c0.37-0.72,0.8-1.45,1.28-2.14c0.01-0.11,0.01-0.23-0.01-0.37c0.1,0.03,0.16,0.04,0.23,0.06c0.12-0.17,0.25-0.34,0.38-0.51
				c0,0,0,0,0-0.01h0.01c0.04-0.05,0.07-0.1,0.11-0.15c-0.04,0.01-0.08,0.01-0.12-0.01c0.02-0.18-0.03-0.27-0.15-0.31
				c0.15-0.16,0.3-0.31,0.45-0.46C85.02,73.88,84.76,73.83,84.56,73.72z M23.22,16.01c-0.07,0.07-0.18-0.1-0.14-0.14
				C23.16,15.79,23.26,15.97,23.22,16.01z M23.51,17.15c-0.07,0.07-0.18-0.1-0.14-0.14C23.44,16.93,23.55,17.11,23.51,17.15z
				 M25.34,13.31c0.07-0.07,0.18,0.1,0.14,0.14C25.4,13.52,25.3,13.35,25.34,13.31z M25.05,15.58c-0.17-0.06-0.29-0.18-0.28-0.43
				C24.95,15.22,25.06,15.34,25.05,15.58z M24.77,13.16c-0.27-0.06-0.61-0.05-0.56-0.43C24.58,12.7,24.82,12.79,24.77,13.16z
				 M23.51,12.31c-0.13-0.15-0.52-0.04-0.42-0.43C23.39,11.86,23.53,12,23.51,12.31z M24.07,13.16c-0.35-0.12-0.75-0.19-1.27-0.14
				C22.75,12.52,24.28,12.59,24.07,13.16z M22.52,15.16c-0.31,0.08-0.2-0.27-0.42-0.28C22.15,14.52,22.64,14.86,22.52,15.16z
				 M22.24,14.16c-0.22-0.07-0.01-0.15,0.14-0.14C22.6,14.09,22.39,14.17,22.24,14.16z M21.67,12.45c0.32-0.31,0.79,0.04,0.71,0.57
				c-0.27-0.27-0.36-0.01-0.71,0V12.45z M21.67,15.16c0.08,0,0.16,0.12,0,0.14V15.16z M21.67,17.72c0.08,0,0.16,0.11,0,0.14V17.72z
				 M8,58.32c-0.21,0.03-0.22-0.15-0.21-0.34h0.34C8.15,58.14,8.15,58.31,8,58.32z M10.46,68.47c-0.33,0.04-0.32-0.28-0.55-0.35
				c-0.3-0.01-0.24,0.36-0.48,0.42c-0.32-0.07-0.43-0.35-0.75-0.42c-0.05-0.37,0.25-0.39,0.41-0.55c0.31,0.19,0.61,0.39,1.16,0.35
				C10.41,68.01,10.66,68.23,10.46,68.47z M11.07,68.61c0.14-0.03,0.18,0.05,0.27,0.07C11.33,68.88,11.02,68.84,11.07,68.61z
				 M22.48,86.63C22.88,86.72,22.23,86.95,22.48,86.63L22.48,86.63z M24.94,88.77c0.12,0.02,0.15,0.12,0.14,0.28
				C24.88,89.05,24.85,88.85,24.94,88.77z M34.57,90.01c-0.14,0.11-0.61,0.11-0.75,0c0.07-0.3,0.34-0.39,0.68-0.41
				C34.5,89.76,34.62,89.8,34.57,90.01z M44.68,95.88c-0.26,0.06-0.24-0.31-0.14-0.41h0.21C44.84,95.55,44.87,95.88,44.68,95.88z
				 M46.05,94.98c-0.08-0.44,0.7-0.48,0.62,0C46.5,95.03,46.19,95.12,46.05,94.98z M46.66,96.98c-0.28,0.04-0.23-0.3-0.07-0.35
				C46.77,96.64,46.76,96.89,46.66,96.98z M47.82,96.43c-0.4-0.01-0.65-0.17-0.61-0.62c0.28,0.06,0.35-0.11,0.61-0.07
				c0.03,0.06,0.06,0.12,0.14,0.14C47.98,96.13,47.88,96.26,47.82,96.43z M48.05,96.47c0-0.14,0.17-0.11,0.28-0.14
				C48.33,96.46,48.16,96.44,48.05,96.47z M49.88,95.75c0.03-0.16,0.14-0.08,0.14,0C50,95.92,49.88,95.84,49.88,95.75z M49.67,94.91
				c-0.23-0.3,0.11-0.85,0.41-0.62C50.09,94.64,49.94,94.84,49.67,94.91z M51.1,96.71c0.05-0.13,0.07,0.04,0.07,0.14
				C51.12,96.97,51.1,96.8,51.1,96.71z M51.57,97.89c0-0.14,0.17-0.11,0.28-0.14C51.85,97.89,51.68,97.86,51.57,97.89z M51.72,97.6
				c-0.07-0.07,0.1-0.18,0.14-0.14C51.93,97.54,51.75,97.64,51.72,97.6z M52.42,97.46c-0.06-0.34,0.26-0.31,0.14-0.71
				C52.99,96.54,52.76,97.57,52.42,97.46z M53.26,96.04c0.07-0.22,0.15-0.01,0.14,0.14C53.33,96.4,53.26,96.19,53.26,96.04z
				 M53.83,97.03c-0.07-0.07,0.1-0.18,0.14-0.14C54.04,96.97,53.86,97.07,53.83,97.03z M62.13,90.92c-0.07-0.07,0.11-0.18,0.14-0.14
				C62.35,90.85,62.17,90.96,62.13,90.92z M76.21,84.51c0.14,0.43-0.31,0.25-0.56,0.29C75.68,84.55,75.89,84.47,76.21,84.51z
				 M75.65,83.51c0.07,0.08-0.1,0.18-0.14,0.15C75.44,83.59,75.61,83.48,75.65,83.51z M74.52,85.51c-0.07-0.07,0.1-0.18,0.14-0.14
				C74.74,85.44,74.56,85.55,74.52,85.51z M76.64,87.36c-0.3-0.2,0.11-0.71-0.14-0.86C77.01,86.18,76.83,86.99,76.64,87.36z
				 M75.93,86.79c-0.39-0.06-0.13,0.53-0.42,0.57c-0.54,0.25,0.14-0.98-0.43-0.43c-0.21-0.26,0.3-1.02,0.43-1.42
				c0.19,0.04,0.11,0.36,0.14,0.57c0.25-0.03,0.32-0.25,0.28-0.57c0.42,0.1,0.61,0.42,1.27,0.28
				C76.57,85.92,76.52,86.63,75.93,86.79z M77.62,81.95c0.51-0.14,0.25,0.61,0.14,0.71C77.46,82.69,77.7,82.16,77.62,81.95z
				 M78.04,85.65c-0.02,0.17-0.26,0.12-0.42,0.14C77.64,85.63,77.88,85.67,78.04,85.65z M77.62,87.22c-0.07-0.07,0.1-0.18,0.14-0.14
				C77.83,87.15,77.66,87.26,77.62,87.22z M77.76,88.78c-0.36-0.26,0.23-0.01,0.42,0C78.08,89.04,77.93,88.8,77.76,88.78z
				 M79.03,84.51c-0.27,0.28-0.13,0.61-0.28,0.71C78.72,85.66,78.34,84.37,79.03,84.51z M79.73,87.07c0.07,0.07-0.1,0.18-0.14,0.14
				C79.52,87.14,79.69,87.03,79.73,87.07z M79.17,87.64c0-0.14,0.17-0.11,0.28-0.14C79.45,87.64,79.28,87.61,79.17,87.64z
				 M79.31,87.22c0,0.14-0.17,0.11-0.28,0.14C79.03,87.22,79.2,87.25,79.31,87.22z M80.44,80.95c0,0.14-0.17,0.11-0.28,0.14
				C80.16,80.96,80.33,80.99,80.44,80.95z M79.45,85.37c0.06-0.28,0.05-0.62,0.42-0.57C80.13,85.04,79.83,85.36,79.45,85.37z
				 M80.01,85.65c0.03-0.18,0.28-0.15,0.28,0C80.17,85.74,80.04,85.82,80.01,85.65z M80.72,85.08c-0.12-0.03-0.13,0.06-0.14,0.14
				h-0.28v-0.29c0.12,0.03,0.13-0.06,0.14-0.14h0.28V85.08z M80.72,81.52c0.03-0.16,0.14-0.08,0.14,0
				C80.83,81.69,80.72,81.6,80.72,81.52z M81.14,79.96c0.06-0.13,0.12-0.25,0.28-0.28c0-0.28-0.39-0.18-0.28-0.57
				c0.44,0.03,0.68,0.27,0.7,0.71C81.68,79.94,81.47,80.01,81.14,79.96z M81.14,78.39c0.32,0.2,0.88,0.16,0.85,0.71
				C81.61,78.96,81.18,78.87,81.14,78.39z M82.83,77.97c-0.07-0.07,0.1-0.18,0.14-0.14C83.04,77.9,82.87,78.01,82.83,77.97z
				 M84.38,74.27c-0.07-0.07,0.1-0.18,0.14-0.14C84.59,74.2,84.42,74.31,84.38,74.27z M72.64,9.89c-0.08-0.05-0.08-0.18-0.04-0.34
				l-0.23,0.02C72.35,9.84,72.52,10.19,72.64,9.89z M29.98,12.56c-0.11-0.06-0.22-0.21-0.32-0.11
				C29.77,12.52,29.87,12.66,29.98,12.56z M46.48,5.85c-0.06,0.11-0.04,0.22,0.11,0.32C46.65,6.07,46.62,5.96,46.48,5.85z
				 M89.59,64.3c0.01,0.2-0.07,0.31-0.14,0.43c0.29-0.09,0.98,0.23,0.84-0.28C89.85,64.61,89.92,64.51,89.59,64.3z M90.01,65.02
				c-0.11,0.03-0.28,0-0.28,0.14C89.84,65.13,90.01,65.15,90.01,65.02z M31.16,10.29c-0.06-0.08-0.11-0.15,0-0.22
				c0.06,0.06,0.21,0.04,0.11-0.11c-0.18,0.13-0.36,0-0.54,0.11C30.88,10.18,31.02,10.4,31.16,10.29z M89.31,66.58
				c-0.04-0.04-0.21,0.07-0.14,0.14C89.2,66.76,89.38,66.65,89.31,66.58z M90.72,65.16h-0.43v0.43h0.28
				C90.58,65.4,90.75,65.39,90.72,65.16z M81.53,82.3l0.11-0.46c-0.14-0.05-0.28-0.09-0.47-0.06C81.35,81.8,81.5,82.01,81.53,82.3z
				 M30.3,11.37c-0.21-0.19-0.42-0.92-0.75-0.97C29.87,10.87,29.54,11.41,30.3,11.37z M4.78,65.2c-0.05-0.26-0.11-0.51-0.22-0.71
				C4.63,64.73,4.7,64.97,4.78,65.2z M53.76,2.82c-0.11-0.06-0.22-0.21-0.32-0.11C53.55,2.77,53.65,2.92,53.76,2.82z M79.83,14.16
				c-0.04,0.04,0.06,0.21,0.14,0.14C80,14.26,79.9,14.09,79.83,14.16z M90.29,65.73c-0.04-0.04-0.21,0.07-0.14,0.14
				C90.19,65.91,90.36,65.8,90.29,65.73z M90.85,65.16c0.04,0.04,0.21-0.07,0.14-0.14C90.96,64.98,90.78,65.09,90.85,65.16z
				 M95.5,60.6c-0.39-0.17-0.46-0.57-0.29-0.97c-0.01-0.01-0.01-0.03-0.01-0.05l-0.06-0.13c-0.02,0-0.04,0.01-0.06,0.01
				c-0.01-0.06,0.01-0.1,0.01-0.15l-1.34-3.23c-0.74-1.8-1.08-4.22-1.03-6.59c-0.04,0.05-0.11,0.08-0.14,0.05
				c-0.07-0.07,0.09-0.18,0.14-0.16c0.06-2,0.39-3.96,1.02-5.48l1.45-3.5c0-0.01,0.01-0.03,0.01-0.04
				c-0.09,0.07-0.22,0.15-0.19,0.25c-0.46-0.14,0.16-0.28,0.14-0.43c0.04,0.01,0.07,0.02,0.09,0.03c1.26-3.32-0.12-7.47-3.12-9.33
				l-2.4-1.48c-0.34-0.03-0.87-0.37-1.19-0.47c0.02-0.1,0.11-0.13,0.22-0.13c-2.25-1.44-4.53-4.22-5.89-6.97
				c-0.07,0-0.14-0.12-0.11-0.15c0.01-0.01,0.02-0.01,0.03-0.01c-0.03-0.06-0.06-0.12-0.08-0.18c-0.1,0.23-0.15,0.51-0.23,0.76
				c-0.43-0.1-0.51,0.15-0.84,0.14c-0.04-0.38,0.2-0.47,0.56-0.43c0.12-0.4-0.2-0.37-0.14-0.71c0.13-0.09,0.28-0.16,0.44-0.22
				c-0.13-0.31-0.25-0.61-0.35-0.92h-0.23c-0.04-0.17,0.04-0.23,0.14-0.26c-0.08-0.27-0.16-0.53-0.22-0.79l-0.74-3.12
				c-0.02-0.01-0.04-0.03-0.04-0.05c0-0.02,0.01-0.03,0.02-0.04l-0.11-0.48c-0.02-0.1-0.06-0.2-0.08-0.3
				c-0.05-0.06-0.06-0.15-0.07-0.25c-0.02-0.07-0.05-0.15-0.08-0.22c-0.02-0.02-0.05-0.04-0.09-0.05c0-0.04,0.02-0.06,0.04-0.08
				c-0.12-0.31-0.25-0.6-0.41-0.89c-0.24,0.12,0.4,0.51-0.2,0.4c-0.11,0.44,0.39,0.27,0.28,0.71c0.06,0.22,0.44,0.12,0.28,0.57
				c-0.13-0.15-0.52-0.04-0.42-0.43c-0.29,0.04-0.04,0.62-0.28,0.71c-0.25,0.02-0.3-0.17-0.56-0.14c-0.05-0.24,0.11-0.27,0.28-0.29
				c-0.36-0.8,0.26-1.04,0-1.85c0.13,0.11,0.34,0.14,0.55,0.18c-0.03-0.06-0.08-0.11-0.11-0.17c-0.31-0.03-0.48-0.2-0.72-0.29
				c0.16-0.19,0.15-0.37,0.11-0.55c-0.08-0.09-0.14-0.19-0.22-0.28c0.01,0.07-0.03,0.16-0.1,0.21c-0.04,0.18-0.06,0.39-0.07,0.61
				c-0.28-0.47-0.22-0.03-0.71,0c-0.26-0.31-0.17-0.97-0.84-0.85c0.28-0.34-0.06-0.99-0.01-1.45c-0.04-0.02-0.08-0.06-0.12-0.08
				c-0.04,0.01-0.08,0-0.11-0.03c0-0.01,0.01-0.02,0.01-0.03c-0.04-0.02-0.08-0.04-0.12-0.07c-0.01,0.1-0.21,0.05-0.21-0.01
				c0-0.05,0.04-0.06,0.08-0.06c-0.28-0.15-0.58-0.3-0.88-0.42c-0.05,0.14-0.13,0.21-0.34,0c0.27,0.5-0.34,0.48-0.14,1.28h-0.56
				c-0.02-0.4,0.47-0.28,0.28-0.85c-0.17-0.21-0.57-0.43-0.28-0.71c-0.02-0.02-0.04-0.04-0.06-0.05c-0.65-0.15-1.32-0.22-1.99-0.18
				c0.33,0.25-0.12,0.54,0.49,0.52c-0.11,0.12-0.64,0.18-0.99,0.43c0.04,0.37,0.24-0.2,0.57,0c-0.38,0.55,0.01,0.56-0.14,0.99
				c0.38-0.16,0.35-0.07,0.84,0c0.25,0.38-0.62,0.28-0.14,0.43c-0.14,0.56-0.56-0.7-0.56,0.14c-0.16-0.12-0.38-0.19-0.71-0.14
				c-0.12-0.29,0.18-0.39,0.14-0.57c-0.12-0.63-0.81-0.76-0.56-1.42c-0.07-0.11-0.16-0.2-0.26-0.28l-0.05,0
				c0.03,0.03,0.03,0.07-0.01,0.13c-0.11,0.08-0.22-0.01-0.24-0.11l-0.8,0.07c-0.06,0.09-0.14,0.17-0.19,0.18
				c0.03,0.16,0.14,0.08,0.14,0c0.15,0.32,0.44,0.5,0.42,0.99c-0.21,0-0.63-0.58-0.56,0c-0.22-0.06-0.12-0.45-0.57-0.29
				c-0.04,0.38,0.3,0.37,0.57,0.43c-0.31,0.45-0.45,0.18-0.14,0.71c-0.12,0.03-0.13-0.06-0.14-0.14c-0.29,0.04-0.28,0.38-0.42,0.57
				c-0.1-0.48-0.06-1.13-0.02-1.77c-0.02-0.16-0.02-0.32,0-0.48c-0.04-0.01-0.08-0.02-0.12-0.03c0.06-0.03,0.09-0.07,0.1-0.11
				L69.4,9.82c0.11,0.06,0.17,0.16,0.14,0.36c-0.24,0.05-0.27-0.11-0.28-0.28c-0.23,0.24-0.59,0.35-1.13,0.28
				c-0.04-0.1-0.06-0.21-0.08-0.32c-1.4-0.04-2.95-0.32-4.46-0.79c-0.19,0.09-0.43,0.08-0.67-0.03c0.06-0.07,0.09-0.12,0.1-0.15
				c-0.12-0.04-0.24-0.08-0.36-0.13c0.06,0.13,0.09,0.28,0.12,0.42c-0.46,0.08-0.54-0.22-0.55-0.58c-1.71-0.66-3.29-1.53-4.44-2.53
				l-0.99-0.86c-0.13,0.05-0.25,0.09-0.37,0.1c-0.02-0.15,0-0.27,0.05-0.38L54.95,3.6c-0.01-0.01-0.02-0.01-0.02-0.02
				c-0.1,0.08-0.21-0.06-0.31-0.11c0.05-0.05,0.1-0.04,0.16-0.01c-0.22-0.17-0.44-0.34-0.67-0.48c0.04,0.23-0.02,0.46-0.34,0.49
				l0.64,0.65c0.01,0.52-0.36,0.04-0.64,0.43c0.08,0.29-0.02,0.66-0.43,0.65c-0.32-0.25-0.05-0.5,0.11-0.76
				c-0.52-0.51-0.6-1.01-0.86-1.52c0.21-0.03,0.42-0.15,0.64-0.42C53.11,2.45,53,2.41,52.88,2.36c-0.17,0.08-0.34,0.26-0.51,0.13
				c0.11,0.73-0.59,1.08-1.07,1.52c-0.76-0.53-0.96-0.22-1.61-0.97c0.39-0.44,0.78-0.04,1.18-0.32c0.2,0.18,0.1,0.36,0.32,0.54
				c0.84,0.11-0.02-1.06,0.75-0.97c-0.1-0.09-0.2-0.18-0.27-0.27c-0.61-0.13-1.23-0.19-1.84-0.17c-0.08,0.19-0.18,0.37-0.35,0.55
				c-0.2-0.29-0.41-0.42-0.61-0.47c-0.93,0.13-1.83,0.42-2.64,0.87c0.02,0.01,0.03,0.02,0.04,0.04c-0.25,0.3-0.72,0.27-0.86,0.65
				c-0.03-0.04-0.06-0.06-0.09-0.08c-0.09,0.07-0.18,0.14-0.26,0.21l-2.85,2.47c-2.1,1.82-5.64,3.24-8.79,3.66
				c0,0.01,0,0.01-0.01,0.02c-0.07,0.05-0.11,0.03-0.13,0c-0.46,0.06-0.92,0.09-1.36,0.11c-0.08,0.17-0.1,0.36-0.01,0.54
				c0.39,0.25,0.13-0.34,0.43-0.44c0.72,0.67-0.6,0.67,0.43,1.3c-0.36,0-0.24,0.18-0.27,0.4c1.9-0.89,3.88-1.64,5.93-2.24
				c0.04-0.04,0.08-0.08,0.13-0.11c0.02,0.02,0.02,0.04,0.03,0.06c1.97-0.57,4-0.99,6.08-1.26c0-0.09,0.14-0.07,0.19-0.02
				c0.3-0.04,0.61-0.09,0.91-0.11c0.02-0.13,0.12-0.27,0.29-0.4c-0.21-0.4-0.43-0.13-0.64-0.43c0.14-0.69,0.65-1.55,1.5-1.3
				c-0.12-0.42,0.05-0.56,0.1-0.76c0.19-0.36,0.91,0.56,0.75-0.1c0.17-0.26,0.64,0.33,0.21,0.43c0.88,0.35,0.53,0.84,1.18,1.19
				l-0.43,0.43c-0.25-0.18-0.31-0.36-0.11-0.54c-0.47-0.05-0.33-0.71-0.86-0.65c-0.11,0.21,0.18,0.1,0.32,0.32
				c-0.36,0.31-0.71-0.04-1.07-0.21c-0.32,0.51-0.64,0.29-0.96,0.32c-0.18,0.43,0.21,0.87,0.43,1.3c-0.2,0.12-0.27,0.24-0.32,0.37
				c0.06-0.01,0.13-0.01,0.19-0.01c0.01-0.01,0.01-0.02,0.02-0.03c0,0.01,0.01,0.02,0.01,0.03c0.14-0.01,0.28-0.02,0.42-0.03
				c0.03-0.14,0.09-0.28,0.21-0.43c0.19,0.03,0.39,0.14,0.58,0.37c0.49-0.03,0.99-0.04,1.48-0.05c-0.05-0.03-0.09-0.07-0.14-0.1
				c0.1-0.09,0.2,0.03,0.3,0.09c0.25,0,0.5-0.02,0.76-0.02c1.68,0,3.34,0.11,4.97,0.31c0.02-0.01,0.04,0.01,0.07,0.01
				c0-0.01,0-0.03,0-0.04c0.09-0.01,0.14,0.02,0.18,0.07c3.6,0.45,7.07,1.37,10.33,2.7c0.06-0.13,0.13-0.27,0.21-0.41
				c0.02,0.17,0.03,0.33,0.01,0.5c0.32,0.13,0.64,0.27,0.95,0.41c0.07-0.02,0.14-0.06,0.21-0.15c0.07,0.09,0.08,0.18,0.06,0.27
				c0.88,0.4,1.74,0.84,2.59,1.3c0.14-0.22,0.54-0.17,0.51-0.56c0.3,0.31,0.4-0.07,0.85,0c-0.03,0.55,0.12,0.05,0.42,0.14
				c-0.12,0.38,0.26,1.28-0.24,1.28c0.07,0.04,0.13,0.09,0.2,0.13c0.13-0.06,0.25-0.24,0.19-0.4c0.4,0.15,0.72,0.39,0.7,0.96
				c0.43,0.27,0.85,0.55,1.27,0.84c-0.06-0.33,0.08-0.46,0.43-0.38c-0.14,0.12-0.08,0.45-0.36,0.43c0.06,0.04,0.12,0.08,0.18,0.13
				c0.21-0.02,0.48,0.11,0.47,0.33c2.59,1.87,4.97,4.02,7.08,6.42c0.03-0.15,0.14-0.07,0.14,0c-0.01,0.07-0.04,0.09-0.06,0.09
				c0.14,0.16,0.27,0.34,0.41,0.51c0.09-0.14,0.21-0.24,0.45-0.22c-0.07,0.17-0.12,0.36-0.21,0.51c0.08,0.09,0.15,0.18,0.22,0.27
				c0.05-0.4,0.27-0.62,0.69-0.64c0.12,0.17,0.19,0.38,0.14,0.71c-0.13-0.06-0.25-0.12-0.28-0.29c-0.26,0-0.21,0.31-0.49,0.29
				c0.83,1.02,1.62,2.08,2.36,3.18c0.28,0.45,0.74,0.72,1.23,0.95c-0.08,0.28-0.26,0.33-0.46,0.26c0.12,0.19,0.23,0.39,0.35,0.59
				c0.07-0.01,0.14,0.12,0.11,0.15c-0.01,0.01-0.01,0-0.02,0.01c0.73,1.23,1.42,2.5,2.03,3.81c0.01,0,0.02,0,0.01,0.02
				c2.5,5.41,3.89,11.43,3.89,17.78c0,4.9-0.84,9.61-2.36,13.98c0.12-0.11,0.26-0.21,0.44-0.25c0-0.24,0-0.47,0-0.71
				c0.19,0.09,0.26,0.31,0.28,0.57c0.36-0.06,0.65-0.2,0.85-0.43c0.27,0.26,0.11,0.26,0.56,0.14c-0.06,0.34,0.26,0.31,0.14,0.71
				c-0.23,0.04-0.24-0.13-0.42-0.14c-0.07,0.3,0.2,0.27,0.42,0.28c-0.1,0.13-0.26,0.22-0.42,0.28c0.31,0.3,0.29,0.54-0.14,0.71
				c0.47,0.04,0.03,0.63,0.28,1.14c0.41,0.02,0.25,0.61,0.71,0.57c-0.31,0.3,0.07,0.41,0,0.86c-0.54-0.03-0.05,0.12-0.14,0.43
				c-0.39-0.13-1.32,0.29-1.27-0.29c-0.35,0.06-0.01,0.55,0.28,0.43c-0.15,0.41-0.39,0.74-0.99,0.71c0.39-0.27,0.32-0.98-0.14-1.14
				c-0.42,0.1,0.13,0.31,0,0.57c-0.91,0.03-0.04-0.84-1.13-0.57c0.28-0.29-0.06-0.28-0.14-0.57c0.05-0.33,0.22-0.54,0.14-1
				c0.88,0.27,0.49-0.17,0.56-0.43c0.42-0.15,0.25,0.31,0.28,0.57c0.29,0.06,0.37-0.1,0.56-0.14c-0.01-0.14-0.17-0.11-0.28-0.14
				c-0.04-0.23,0.13-0.24,0.14-0.43c-0.12-0.42-0.45,0.08-0.7,0c0.02-0.17-0.03-0.25-0.14-0.29c0.14-0.15,0.28-0.29,0.42-0.43
				c-0.1-0.13-0.28-0.18-0.44-0.25c-0.95,2.55-2.13,4.99-3.52,7.29c0.04,0.05,0.06,0.11,0.08,0.18c0.16-0.1,0.32-0.01,0.42,0.17
				c0.21-0.08,0.41-0.19,0.54-0.35c0.29,0.28,0.12,0.28,0.61,0.15c-0.01,0.04-0.01,0.08,0,0.11c0.55-0.48,1.1-0.91,1.65-1.25
				l0.62-0.38c-0.15-0.11-0.48-0.05-0.39-0.41c0.31-0.07,0.44,0.02,0.44,0.27c0.04-0.03,0.09-0.04,0.11-0.02
				c0.02,0.02,0.02,0.04,0.01,0.06l0.33-0.2c-0.13-0.04-0.22-0.17-0.18-0.39h0.56c0.01,0.06,0.01,0.1,0,0.15l0.04-0.03
				c0.03-0.03,0.06-0.05,0.09-0.06l1.27-0.78c-0.06-0.07,0.11-0.18,0.14-0.14c0.01,0.01,0.01,0.03,0.01,0.05l0.15-0.09
				c0.17-0.1,0.33-0.22,0.49-0.34c0.06-0.25,0.2-0.53,0.26-0.69c0.15,0.13,0.24,0.19,0.32,0.21c0.15-0.14,0.28-0.3,0.42-0.45
				c-0.07,0.01-0.14,0.03-0.23,0.03c0-0.21,0.58-0.63,0-0.57c0.06-0.22,0.44-0.12,0.28-0.57c-0.37-0.04-0.37,0.3-0.43,0.57
				c-0.44-0.31-0.18-0.45-0.7-0.14c-0.03-0.12,0.06-0.14,0.14-0.14c-0.04-0.29-0.38-0.28-0.56-0.43c0.57-0.12,1.38-0.04,2.11,0
				c-0.1,0.13-0.26,0.22-0.42,0.28c0.04,0.15,0.28,0.1,0.28,0.29c0.21-0.12,0.2-0.46,0.28-0.71c0.07,0.13,0.15,0.13,0.23,0.09
				c0.05-0.09,0.1-0.19,0.15-0.28c-0.01-0.05-0.03-0.09-0.09-0.09c0.01-0.08,0.08-0.09,0.18-0.08c0.04-0.09,0.09-0.18,0.13-0.27
				c-0.01-0.03,0.01-0.06,0.05-0.1c0.07-0.16,0.14-0.31,0.2-0.47c-0.13,0-0.27-0.02-0.41-0.06c-0.51,0.11,0.02,1.25-0.7,1.14
				c-0.05-0.24,0.11-0.27,0.28-0.28c-0.24-0.23-0.35-0.6-0.28-1.14c0.36-0.14,0.89-0.11,1.29-0.2c0.4-1.36,0.45-2.82,0.1-4.18
				C95.49,60.53,95.49,60.56,95.5,60.6z M94.46,40.63c0.07-0.07,0.18,0.1,0.14,0.14C94.53,40.84,94.43,40.67,94.46,40.63z
				 M94.18,40.91c0.07-0.07,0.18,0.1,0.14,0.14C94.25,41.13,94.14,40.95,94.18,40.91z M93.9,38.07c-0.14,0-0.11-0.17-0.14-0.28
				C93.9,37.79,93.87,37.96,93.9,38.07z M93.76,42.34c0.07-0.07,0.18,0.1,0.14,0.14C93.83,42.55,93.72,42.38,93.76,42.34z
				 M81.79,20.42c0.07-0.07,0.18,0.1,0.14,0.14C81.86,20.64,81.75,20.46,81.79,20.42z M80.53,14.3c-0.07,0.07-0.18-0.1-0.14-0.14
				C80.46,14.09,80.56,14.26,80.53,14.3z M32.52,10.03c-0.07,0.07-0.18-0.1-0.14-0.14C32.45,9.82,32.56,9.99,32.52,10.03z
				 M45.61,7.61c0.07-0.07,0.18,0.1,0.14,0.14C45.68,7.83,45.57,7.65,45.61,7.61z M49.41,7.61c-0.16-0.03-0.08-0.14,0-0.14
				C49.57,7.5,49.49,7.61,49.41,7.61z M53.64,7.05C53.25,6.61,54.06,7.43,53.64,7.05L53.64,7.05z M54.2,5.05
				c-0.07,0.07-0.18-0.1-0.14-0.14C54.13,4.84,54.24,5.01,54.2,5.05z M54.34,4.62c0.03-0.37,0.24,0.2,0.56,0
				C54.88,4.98,54.42,4.67,54.34,4.62z M55.18,4.91c-0.14,0-0.11-0.17-0.14-0.29C55.18,4.63,55.15,4.8,55.18,4.91z M55.04,5.48
				C55.47,5.79,54.88,6.39,55.04,5.48L55.04,5.48z M55.75,5.48c-0.07,0.07-0.18-0.1-0.14-0.14C55.68,5.26,55.79,5.44,55.75,5.48z
				 M56.31,7.05c-0.18-0.04-0.14-0.28,0-0.29C56.4,6.88,56.48,7.01,56.31,7.05z M63.77,9.61c-0.07,0.07-0.18-0.1-0.14-0.14
				C63.7,9.39,63.81,9.57,63.77,9.61z M64.76,9.75c-0.07,0.08-0.18-0.1-0.14-0.14C64.69,9.53,64.8,9.71,64.76,9.75z M65.18,10.6
				c-0.08,0.07-0.18-0.1-0.14-0.14C65.11,10.39,65.22,10.57,65.18,10.6z M67.01,10.89c-0.16-0.03-0.08-0.14,0-0.14
				C67.17,10.77,67.09,10.89,67.01,10.89z M67.29,11.17c-0.07,0.07-0.18-0.1-0.14-0.14C67.22,10.95,67.33,11.13,67.29,11.17z
				 M67.86,10.6c-0.07,0.07-0.18-0.1-0.14-0.14C67.79,10.39,67.89,10.57,67.86,10.6z M68,11.88c-0.16-0.03-0.08-0.14,0-0.14
				C68.15,11.77,68.07,11.88,68,11.88z M68.42,10.6c0.07-0.07,0.18,0.1,0.14,0.14C68.49,10.82,68.38,10.64,68.42,10.6z M68.7,11.6
				h-0.28v-0.28h0.28V11.6z M68.98,12.17c-0.02-0.25,0.17-0.3,0.14-0.57c0-0.14-0.17-0.11-0.28-0.14c-0.08-0.31,0.27-0.2,0.28-0.43
				c0.56,0.25,0.23,0.51,0.42,1.14H68.98z M68.7,10.74c0.24-0.18,0.37-0.48,0.84-0.43C69.74,10.94,69.08,10.7,68.7,10.74z
				 M70.81,11.46c-0.04,0.04,0.04,0.26,0,0.29c-0.16,0.09-0.23-0.21-0.14-0.29C70.78,11.36,71.39,10.94,70.81,11.46z M74.75,10.32
				c0.08-0.07,0.18,0.1,0.14,0.14C74.82,10.53,74.71,10.36,74.75,10.32z M74.61,12.17c0.03,0.12-0.06,0.14-0.14,0.14h-0.28v-0.43
				C74.37,11.93,74.41,12.13,74.61,12.17z M74.33,11.6h-0.28v-0.28h0.28V11.6z M73.49,10.74c-0.13-0.5,0.46-0.24,0.56-0.14
				C74.01,10.79,73.7,10.72,73.49,10.74z M73.91,12.17c0.07-0.07,0.18,0.1,0.14,0.14C73.98,12.38,73.87,12.21,73.91,12.17z
				 M72.36,12.31c0.07-0.07,0.18,0.1,0.14,0.14C72.43,12.53,72.32,12.35,72.36,12.31z M71.66,12.88c0.14,0,0.11,0.17,0.14,0.28
				C71.66,13.16,71.69,12.99,71.66,12.88z M71.8,12.45c-0.01,0.02-0.05,0.4-0.14,0.28C71.54,12.6,72,12.05,71.8,12.45z M71.94,13.02
				c0.06-0.17,0.18-0.29,0.42-0.28C72.43,13.04,72.16,13.01,71.94,13.02z M72.36,13.73c-0.2-0.06,0.01-0.13,0-0.28
				C72.54,13.49,72.5,13.73,72.36,13.73z M72.92,14.44c-0.31,0.08-0.2-0.27-0.42-0.28C72.46,13.9,73.05,14.15,72.92,14.44z
				 M73.21,14.44v-0.57C73.75,13.76,73.75,14.56,73.21,14.44z M73.77,13.16c-0.08,0.07-0.18-0.1-0.14-0.14
				C73.7,12.95,73.81,13.12,73.77,13.16z M73.77,12.6c0.37-0.04,0.6,0.05,0.56,0.42C74.06,12.96,73.72,12.97,73.77,12.6z
				 M74.33,15.01h-0.28v-0.28h0.28V15.01z M74.05,14.44c-0.19,0.02-0.05-0.79,0.42-0.57C74.43,14.17,74.19,14.26,74.05,14.44z
				 M74.33,13.73c0.06-0.18,0.18-0.29,0.42-0.28C74.69,13.62,74.57,13.74,74.33,13.73z M74.9,15.3c0.16,0.02,0.12,0.26,0.14,0.43
				C74.87,15.7,74.92,15.47,74.9,15.3z M74.9,13.87c0.14,0,0.11,0.17,0.14,0.28C74.9,14.16,74.92,13.99,74.9,13.87z M74.75,13.16
				c0.19-0.49,0.17-1.41,0.28-1.57c-0.09-0.14-0.32-0.14-0.28-0.43c0.44,0.12,0.58,0.55,0.7,1C74.79,11.89,75.5,13.2,74.75,13.16z
				 M75.6,12.74C75.26,12.26,76.07,13.08,75.6,12.74L75.6,12.74z M77.85,14.59v0.57C77.31,15.27,77.31,14.47,77.85,14.59z
				 M76.87,12.6c-0.08,0.07-0.18-0.1-0.14-0.14C76.8,12.38,76.9,12.55,76.87,12.6z M76.87,13.16c-0.08,0.07-0.18-0.1-0.14-0.14
				C76.8,12.95,76.9,13.12,76.87,13.16z M76.58,10.6C76.25,10.13,77.06,10.95,76.58,10.6L76.58,10.6z M76.58,11.17
				C76.25,10.69,77.06,11.52,76.58,11.17L76.58,11.17z M76.44,13.87c0.07-0.07,0.18,0.1,0.14,0.14
				C76.51,14.09,76.4,13.91,76.44,13.87z M76.16,14.16C75.73,14.55,76.55,13.73,76.16,14.16L76.16,14.16z M76.58,15.44
				c-0.42-0.1,0.14-0.31,0-0.57C77.06,15,76.71,15.19,76.58,15.44z M76.87,14.59c-0.21-0.06,0.01-0.13,0-0.28
				C77.04,14.34,77.01,14.58,76.87,14.59z M77.15,11.31c-0.07,0.07-0.18-0.1-0.14-0.14C77.08,11.1,77.19,11.27,77.15,11.31z
				 M77.29,16.29c-0.18-0.03-0.14-0.28,0-0.28C77.49,16.08,77.28,16.14,77.29,16.29z M77.43,13.59c0.07-0.07,0.18,0.1,0.14,0.14
				C77.5,13.81,77.39,13.63,77.43,13.59z M77.71,15.87c-0.49-0.04,0.01-0.39-0.28-0.43c0.35-0.08,0.6-0.11,0.7-0.71
				c0.19,0.04,0.12,0.36,0.14,0.57c-0.25-0.04-0.29,0.14-0.14,0.14C78.12,15.71,77.67,15.54,77.71,15.87z M78.41,15.73
				c-0.07,0.07-0.18-0.1-0.14-0.14C78.35,15.51,78.45,15.69,78.41,15.73z M78.41,14.59c0.14,0,0.11,0.18,0.14,0.28
				C78.42,14.87,78.45,14.7,78.41,14.59z M78.56,14.02c-0.07,0.07-0.18-0.1-0.14-0.14C78.49,13.8,78.6,13.98,78.56,14.02z
				 M78.84,13.59c0.15-0.12,0.05,0.28,0,0.14C79.13,14.54,78.49,13.88,78.84,13.59z M79.4,15.01c-0.25,0.02-0.3-0.17-0.56-0.14
				C78.79,14.62,79.62,14.62,79.4,15.01z M79.4,18.14c-0.07,0.08-0.18-0.1-0.14-0.14C79.33,17.93,79.44,18.1,79.4,18.14z
				 M80.53,15.73C80.19,15.25,81,16.07,80.53,15.73L80.53,15.73z M81.09,21.56c-0.08,0.07-0.18-0.1-0.14-0.14
				C81.02,21.34,81.13,21.52,81.09,21.56z M84.04,23.98c0.14,0,0.11,0.18,0.14,0.28C84.05,24.26,84.08,24.09,84.04,23.98z
				 M85.03,26.83c-0.14-0.51,0.6-0.25,0.7-0.14C85.76,26.99,85.24,26.75,85.03,26.83z M85.79,28.02c-0.07-0.07,0.1-0.18,0.14-0.14
				C86,27.95,85.82,28.06,85.79,28.02z M86.72,28.96c-0.07,0.07-0.18-0.1-0.14-0.14C86.65,28.75,86.76,28.92,86.72,28.96z
				 M87.85,28.82c-0.25-0.03-0.32-0.25-0.28-0.57C87.99,28.11,87.81,28.57,87.85,28.82z M88.04,30.86c-0.07-0.07,0.1-0.18,0.14-0.14
				C88.25,30.79,88.08,30.9,88.04,30.86z M88.41,29.81c0.07-0.07,0.18,0.1,0.14,0.14C88.48,30.03,88.37,29.85,88.41,29.81z
				 M88.46,31.86c-0.07-0.07,0.1-0.18,0.14-0.14C88.67,31.79,88.5,31.9,88.46,31.86z M88.74,29.72c-0.07-0.07,0.1-0.18,0.14-0.14
				C88.96,29.65,88.78,29.76,88.74,29.72z M90.57,34.28c-0.07-0.07,0.1-0.18,0.14-0.14C90.79,34.21,90.61,34.32,90.57,34.28z
				 M90.72,61.46c-0.03,0.17-0.26,0.12-0.43,0.14C90.31,61.43,90.55,61.48,90.72,61.46z M90.57,63.17c-0.07-0.07,0.1-0.18,0.14-0.14
				C90.79,63.1,90.61,63.21,90.57,63.17z M90.57,61.32c-0.07-0.07,0.1-0.18,0.14-0.14C90.79,61.25,90.61,61.35,90.57,61.32z
				 M89.02,68.29c-0.13,0.09-0.25,0.17-0.28,0C88.78,68.11,89.02,68.15,89.02,68.29z M87.05,69.71
				C87.48,69.33,86.67,70.15,87.05,69.71L87.05,69.71z M86.77,70.71c0.08-0.13,0.17-0.25,0-0.28c0.1-0.25,0.25-0.02,0.42,0
				c-0.02,0.12-0.14,0.14-0.14,0.28H86.77z M87.19,71.99v-0.43C87.6,71.35,87.6,72.2,87.19,71.99z M87.48,70.71
				c-0.07-0.07,0.1-0.18,0.14-0.14C87.69,70.64,87.51,70.75,87.48,70.71z M87.48,68.72c0.06-0.21,0.12,0.02,0.28,0
				C87.72,68.9,87.48,68.86,87.48,68.72z M87.9,70.57c-0.07-0.07,0.1-0.18,0.14-0.14C88.11,70.5,87.94,70.61,87.9,70.57z
				 M88.6,70.99c-0.1-0.44,0.49-0.17,0.28-0.71C89.21,70.39,89.02,71.16,88.6,70.99z M89.16,69.86c0.01-0.14,0.17-0.11,0.28-0.14
				C89.44,69.85,89.27,69.82,89.16,69.86z M89.31,69.29c0.03-0.16,0.14-0.08,0.14,0C89.42,69.45,89.3,69.37,89.31,69.29z
				 M89.45,68.72c0.03-0.16,0.14-0.08,0.14,0C89.56,68.88,89.45,68.8,89.45,68.72z M89.87,69.71c-0.08-0.31,0.27-0.2,0.28-0.43
				C90.4,69.24,90.16,69.84,89.87,69.71z M90.57,69.14c0.06-0.21,0.13,0.01,0.28,0C90.82,69.32,90.58,69.29,90.57,69.14z
				 M91.42,68.43c0,0.14-0.17,0.11-0.28,0.14C91.14,68.43,91.31,68.46,91.42,68.43z M91.28,68.72c0.17,0.06,0.29,0.18,0.28,0.43
				C91.26,69.21,91.29,68.94,91.28,68.72z M91.84,68.57c-0.02-0.01-0.4-0.05-0.28-0.14C91.7,68.32,92.24,68.78,91.84,68.57z
				 M92.82,67.44c0.1,0.1,0.51,0.73,0,0.14c-0.03-0.04-0.25,0.04-0.28,0C92.45,67.42,92.75,67.35,92.82,67.44z M93.81,61.03
				c0.07,0.07-0.1,0.18-0.14,0.14C93.6,61.1,93.77,60.99,93.81,61.03z M93.81,61.74c0.07,0.07-0.1,0.18-0.14,0.14
				C93.6,61.81,93.77,61.71,93.81,61.74z M93.81,64.45c0.07,0.07-0.1,0.18-0.14,0.14C93.6,64.52,93.77,64.41,93.81,64.45z
				 M93.53,59.32c0.07,0.07-0.1,0.18-0.14,0.14C93.32,59.39,93.49,59.29,93.53,59.32z M93.25,58.9c-0.12,0.09-0.25,0.17-0.28,0
				C93,58.72,93.25,58.75,93.25,58.9z M92.82,61.6c0,0.14-0.17,0.11-0.28,0.14C92.55,61.6,92.72,61.63,92.82,61.6z M92.97,65.16
				v0.28h-0.28v-0.28H92.97z M92.69,57.76c0.07,0.07-0.1,0.18-0.14,0.14C92.47,57.83,92.65,57.72,92.69,57.76z M92.63,42.2
				c0.06-0.18,0.18-0.29,0.42-0.28C93.12,42.21,92.86,42.18,92.63,42.2z M93.06,38.5v-0.43c0.25-0.02,0.29,0.18,0.56,0.14
				C93.59,38.46,93.38,38.53,93.06,38.5z M93.34,36.93c-0.23,0.29-0.47,0.57-0.99,0.57C92.53,37.15,92.93,37.04,93.34,36.93z
				 M92.4,45.81c0.07,0.07-0.1,0.18-0.14,0.14C92.19,45.87,92.37,45.77,92.4,45.81z M92.12,60.04c0.13-0.15,0.52-0.04,0.42-0.43
				c0.36,0.37-0.07,1.15-0.56,1.14C92.1,60.58,92.17,60.37,92.12,60.04z M92.54,64.73c-0.03,0.16-0.14,0.08-0.14,0
				C92.43,64.57,92.54,64.65,92.54,64.73z M91.28,61.74c-0.07-0.07,0.1-0.18,0.14-0.14C91.49,61.67,91.32,61.78,91.28,61.74z
				 M91.42,63.02c0.03-0.16,0.14-0.08,0.14,0C91.53,63.19,91.42,63.1,91.42,63.02z M91.7,61.74c0.04-0.29,0.52-0.13,0.56-0.43
				c0.36,0.04-0.19,0.24,0,0.57C92.01,61.9,91.97,61.71,91.7,61.74z M92.12,62.31c-0.07-0.07,0.1-0.18,0.14-0.14
				C92.34,62.24,92.16,62.35,92.12,62.31z M92.12,63.31c0.03-0.12-0.06-0.13-0.14-0.14c0.03-0.15,0.28-0.1,0.28-0.28
				c0.16,0.03,0.08,0.14,0,0.14c-0.02,0.17,0.03,0.25,0.14,0.28c-0.03,0.2-0.42,0.05-0.42,0.28C91.74,63.5,91.89,63.27,92.12,63.31z
				 M91.98,65.02c-0.07-0.07,0.1-0.18,0.14-0.14C92.2,64.95,92.02,65.06,91.98,65.02z M92.12,66.3v-0.57
				c0.25-0.02,0.3,0.18,0.56,0.14c0.14-0.01,0.11-0.18,0.14-0.29c0.31-0.08,0.2,0.27,0.42,0.29C93.01,66.44,92.74,66.11,92.12,66.3z
				 M93.25,63.88c0.08,0.07-0.1,0.18-0.14,0.14C93.03,63.95,93.21,63.84,93.25,63.88z M93.2,65.68c-0.16-0.03-0.08-0.14,0-0.14
				C93.36,65.56,93.28,65.68,93.2,65.68z M93.11,60.04c-0.12-0.15,0.13-0.26,0.14-0.28C93.56,59.2,93.19,60.13,93.11,60.04z
				 M93.53,60.18c0.07,0.07-0.1,0.18-0.14,0.14C93.32,60.25,93.49,60.14,93.53,60.18z M93.39,63.74c0.03-0.16,0.14-0.08,0.14,0
				C93.5,63.9,93.39,63.81,93.39,63.74z M93.67,65.16c0.07,0.07-0.1,0.18-0.14,0.14C93.46,65.23,93.63,65.12,93.67,65.16z
				 M93.53,65.44c0.18,0.25,0.48,0.37,0.42,0.85C93.33,66.5,93.57,65.83,93.53,65.44z M94.09,59.32c-0.07-0.07,0.1-0.18,0.14-0.14
				C94.31,59.26,94.13,59.36,94.09,59.32z M94.09,57.9c-0.07-0.07,0.1-0.18,0.14-0.14C94.31,57.83,94.13,57.94,94.09,57.9z
				 M94.52,64.59c-0.07-0.07,0.1-0.18,0.14-0.14C94.73,64.52,94.55,64.63,94.52,64.59z M94.52,61.46c-0.07-0.07,0.1-0.18,0.14-0.14
				C94.73,61.39,94.55,61.5,94.52,61.46z M94.66,60.46c-0.07-0.07,0.1-0.18,0.14-0.14C94.87,60.39,94.7,60.5,94.66,60.46z
				 M95.36,61.6c-0.19-0.04-0.11-0.36-0.14-0.57C95.71,60.9,95.46,61.5,95.36,61.6z M90.01,67.72c0.07-0.21,0.21-0.36,0.28-0.57
				c-0.45-0.18-0.11,0.46-0.56,0.28c-0.08-0.25,0.42-0.59,0-0.71c0.02,0.31-0.5,0.07-0.7,0.14c0.13,0.26-0.42,0.48,0,0.57
				c0.07-0.17,0.15-0.32,0.28-0.43c-0.01,0.39,0.23,0.29,0,0.57C89.75,67.42,89.68,67.51,90.01,67.72z M45.83,3.02
				c-0.01,0.01-0.02,0.01-0.03,0.02C45.81,3.04,45.83,3.04,45.83,3.02C45.83,3.03,45.83,3.03,45.83,3.02z M31.59,11.8
				c0-0.06-0.22-0.11-0.22,0C31.37,11.87,31.59,11.92,31.59,11.8z M30.95,10.72l-0.64-0.65c-0.11,0.14-0.32,0.29-0.21,0.43
				C30.56,10.21,30.42,10.93,30.95,10.72z M91.14,64.45c-0.5,0.21-0.85-0.46-0.98-0.14c0.16,0.03,0.22,0.16,0.28,0.28
				c-0.02,0.17-0.25,0.32,0,0.43C90.33,64.49,91.03,64.77,91.14,64.45z M90.85,67.29c-0.16,0.02-0.4-0.03-0.42,0.14
				c0.09,0.01,0.17,0.02,0.14,0.14c-0.08,0-0.16,0.12,0,0.14C90.61,67.52,90.8,67.48,90.85,67.29z M91,66.58
				c-0.12,0.51-0.49-0.06-0.71,0.43h0.85C91.12,66.84,91.16,66.6,91,66.58z M90.43,68.43c0.04,0.04,0.21-0.07,0.14-0.14
				C90.53,68.25,90.36,68.36,90.43,68.43z"/>
			<path class="st1" d="M28.96,80.89c-0.05,0.07-0.09,0.15-0.11,0.26c0.09,0.32,0.7,0.12,0.88,0.34v0.41
				c0.01,0.21,0.37,0.09,0.34,0.34c-0.1,0.04-0.17,0.1-0.27,0.14c-0.21,0-0.26-0.14-0.4-0.21c-0.26-0.06-0.24,0.17-0.41,0.21
				c-0.03-0.01-0.07-0.02-0.11-0.03c0.46,0.31,0.92,0.61,1.39,0.9c0.07-0.09,0.14-0.17,0.21-0.26c-0.06-0.31-0.27-0.46-0.27-0.82
				c0.15-0.11,0.31-0.14,0.47-0.15C30.1,81.66,29.53,81.28,28.96,80.89z M13.22,58.73c-0.18-0.37,0.43-0.27,0.6-0.41
				c-0.6-2.68-0.93-5.46-0.93-8.32c0-10.63,4.38-20.21,11.4-27.04c-0.28-0.13-0.55-0.32-0.83-0.7c-0.03-0.08-0.02-0.17,0-0.25
				c-7.29,7.07-11.85,17-11.85,27.99c0,2.1,0.17,4.15,0.49,6.16c0.03,0.02,0.07,0.05,0.09,0.08c-0.02,0-0.05,0-0.07,0
				c0.63,3.93,1.86,7.66,3.57,11.11c-0.02-0.29-0.16-0.46-0.13-0.8c0.14-0.29,0.51-0.41,0.88-0.27c0.04-0.02,0.06-0.05,0.09-0.08
				c-1.14-2.4-2.03-4.93-2.65-7.57C13.81,58.81,13.42,58.77,13.22,58.73z M16.11,65.73c-0.01,0.08-0.07,0.04-0.07,0
				C16.05,65.65,16.11,65.69,16.11,65.73z M28.45,81.01c-0.03-0.08-0.09-0.14-0.2-0.14c-0.15,0.03,0,0.36-0.14,0.41
				c-0.29-0.05,0.06-0.33-0.14-0.48c-0.31-0.02-0.28,0.31-0.61,0.27c-0.01-0.46,0.24-0.74,0.07-1.16c0.05-0.02,0.13,0,0.21,0.01
				c-0.7-0.54-1.39-1.1-2.05-1.68c0.01,0.1,0.02,0.21,0.01,0.32c-0.11-0.03-0.22-0.06-0.31-0.11c-0.03-0.02-0.05-0.04-0.07-0.05
				c0.07-0.1,0.06-0.28,0.15-0.36c-0.13-0.12-0.27-0.24-0.4-0.37c-0.02,0.04-0.04,0.07-0.04,0.12c0.06,0.09,0.06,0.23,0.06,0.37
				c-0.07-0.14-0.09-0.3-0.12-0.5c-0.1-0.56-0.57-0.55-0.75-0.99c-0.16-0.39-0.56-0.71-0.99-0.85c-0.39-0.42-0.77-0.84-1.15-1.27
				c-0.12,0.05-0.21,0.14-0.37,0.22c-0.5-0.04-0.87-0.22-1.15-0.48c0.03-0.35-0.06-0.57-0.2-0.75c0.18-0.49-0.16-0.59-0.14-1.1
				c-0.21-0.17-0.73-0.03-0.68-0.48c0.16-0.16,0.28,0.02,0.51,0c-0.97-1.35-1.85-2.77-2.63-4.25c-0.1,0.09-0.13,0.27-0.18,0.41
				c-0.06,0.45,0.23,0.55,0.27,0.89c0.02,0.34-0.01,0.63-0.07,0.89c0.1,0.17,0.1,0.36,0.1,0.55c0.92,1.5,1.95,2.92,3.05,4.27
				c0.31,0.12,0.57,0.3,0.78,0.53c0.1,0.18,0.13,0.36,0.11,0.54c0.34,0.39,0.7,0.76,1.06,1.14c0.02-0.01,0.04-0.01,0.06-0.03v-0.41
				c0.01,0,0.01-0.01,0.02-0.01c0.27,0.34,0.59,0.63,0.96,0.9c0,0.03-0.01,0.07-0.01,0.1c-0.06,0.33,0.04,0.63,0.33,0.82
				c0.35,0.23,0.67,0.18,1.01,0.46c0.25,0.2,0.49,0.4,0.8,0.48c0.22,0.05,0.35-0.07,0.38-0.23c0.01,0.01,0.02,0,0.03,0.01
				c-0.01,0.28-0.02,0.57,0.13,0.69c0.27,0.02,0.34-0.16,0.61-0.14c0.13,0.15,0.29,0.26,0.47,0.34c0.05,0.25-0.17,0.38,0,0.55
				c-0.13,0.14-0.24,0.29-0.33,0.47c0.49,0.38,0.99,0.75,1.51,1.11c0.05-0.08,0.16-0.09,0.18-0.21c-0.05-0.16-0.22-0.18-0.27-0.34
				C28.23,81.2,28.45,81.22,28.45,81.01z M73.64,79.02c-0.09,0.6-0.43,0.94-1.02,1.02c0.04-0.3,0.39-0.29,0.58-0.44
				c0.03-0.14,0.04-0.3,0.1-0.41c-2.42,1.98-5.1,3.65-7.97,4.97c0.11-0.04,0.22-0.05,0.34-0.01c-0.07,0.41-0.76,0.21-0.58,0.88
				c-0.28-0.22-0.14-0.66,0.16-0.83c-4.65,2.12-9.81,3.31-15.25,3.31c-1.57,0-3.12-0.1-4.65-0.29c-0.07,0.11-0.15,0.2-0.29,0.24
				c-0.28,0.04-0.37-0.12-0.59-0.14c-0.2-0.15-0.5-0.19-0.68,0.04c-0.02,0.02-0.04,0.04-0.06,0.07c-0.14,0.17-0.2,0.48,0,0.64
				c0.02,0.02,0.04,0.03,0.06,0.04c0.26,0.21,0.65,0.17,0.82-0.09c0.07,0.11,0.12,0.22,0.12,0.33c0,0.03-0.01,0.05-0.01,0.07
				c1.73,0.25,3.5,0.38,5.29,0.38c1.03,0,2.04-0.05,3.05-0.13c-0.01-0.07-0.02-0.15-0.06-0.19c-0.1-0.15-0.34-0.16-0.34-0.41
				c0.3-0.35,0.54,0.13,0.75,0.28c0.24,0,0.54-0.04,0.61,0.14c0.18-0.06-0.13-0.3,0.07-0.41c0.51,0.09,1.22-0.74,1.29,0.14
				c-0.16,0.05-0.47,0.13-0.61,0c-0.26,0.03-0.29,0.3-0.54,0.34c0,0,0,0.01,0,0.01c2.87-0.32,5.64-0.96,8.28-1.88
				c-0.05-0.29,0.22-0.64,0.47-0.46c0,0.12-0.02,0.22-0.05,0.3c0.31-0.11,0.62-0.22,0.93-0.34c-0.08-0.25,0.04-0.6,0.38-0.57
				c-0.03,0.12-0.15,0.15-0.15,0.29c0.03,0.05,0.05,0.1,0.09,0.15c1.39-0.56,2.75-1.19,4.06-1.91h-0.08V83.7h0.44
				c0.03,0.16-0.04,0.22-0.1,0.29c1.81-1,3.51-2.16,5.12-3.43c-0.06,0.04-0.17,0.04-0.25,0.06c0.01-0.14,0.18-0.11,0.29-0.15
				c0,0.03-0.01,0.06-0.03,0.07c0.63-0.5,1.25-1.01,1.85-1.55c-0.08-0.01-0.2-0.01-0.37,0.01c0.3-0.14,0.12-0.75,0.58-0.73
				c0.01-0.43,0.04-0.96,0.18-1.38c-0.75,0.74-1.53,1.44-2.33,2.11C73.55,79.01,73.59,79.01,73.64,79.02z M45.53,87.86
				c-0.23,0-0.45,0-0.41-0.27C45.3,87.43,45.64,87.52,45.53,87.86z M57.6,87.79c-0.25,0.06-0.24-0.31-0.13-0.41h0.2
				C57.76,87.47,57.79,87.79,57.6,87.79z M58.96,86.9c-0.08-0.43,0.7-0.48,0.61,0C59.41,86.96,59.1,87.04,58.96,86.9z M80.61,26.63
				c-0.02,0.06-0.13,0.12-0.16,0.08c-0.06-0.06,0.04-0.14,0.11-0.15c-0.42-0.55-0.85-1.09-1.3-1.62c0,0.04,0,0.09,0.03,0.16
				c-0.15,0-0.17-0.12-0.29-0.15v-0.29c0.01,0,0.01,0,0.02,0c-2.95-3.44-6.49-6.35-10.45-8.58c0.03,0.13-0.11,0.25-0.22,0.38
				c-0.07-0.16-0.07-0.31,0.06-0.47c-4.5-2.51-9.56-4.12-14.93-4.61c0,0,0,0,0,0c0,0.11-0.2,0.06-0.2,0c0-0.01,0.01-0.01,0.01-0.02
				c-0.33-0.03-0.67-0.06-0.99-0.08c-0.16,0.02-0.33,0.01-0.47-0.02c-0.09,0-0.19,0-0.28-0.01c-0.14,0.1-0.28,0.1-0.42,0.03
				c-0.18,0.32-0.32,0.74-0.72,0.31c0.11,0.01,0.41-0.16,0.6-0.36c-0.34-0.01-0.68-0.03-1.02-0.03c-3.23,0-6.38,0.41-9.38,1.18
				l-0.14,0.14l-0.09-0.09c-2.36,0.62-4.63,1.47-6.8,2.51c0,0.01,0.01,0.06,0.01,0.17c-0.02,0.45-0.03-0.11-0.02-0.17
				c-0.9,0.43-1.79,0.9-2.65,1.4l0.01,0.01c-0.02,0.01-0.03,0.01-0.04,0.01c-0.59,0.34-1.16,0.7-1.72,1.07
				c0.03,0.08,0.04,0.18,0.02,0.27c-0.14,0.13-0.28,0.09-0.41-0.02c-1.37,0.92-2.68,1.94-3.92,3.03c0.15,0.24,0.26,0.53,0.55,0.82
				c-0.03,0.13,0.05,0.25,0.01,0.37c1.84-1.64,3.83-3.1,5.97-4.35c-0.06,0.01-0.13-0.02-0.13-0.06c0-0.11,0.21-0.06,0.21,0
				c0,0.01-0.01,0.02-0.02,0.03c0.76-0.45,1.55-0.88,2.34-1.27c0-0.03,0-0.07,0.03-0.1c0.04,0.01,0.09,0.02,0.12,0.03
				c0.4-0.19,0.8-0.37,1.21-0.55c-0.03-0.03-0.06-0.05-0.1-0.1c0.2,0.02,0.4-0.15,0.6-0.13c0.51-0.22,1.04-0.43,1.57-0.62
				c0.02-0.03,0.05-0.04,0.1-0.03c0.13-0.05,0.26-0.08,0.38-0.13c-0.06-0.03-0.12-0.09-0.19-0.12c0.09-0.09,0.19,0.03,0.28,0.09
				c3.82-1.35,7.93-2.09,12.21-2.09C70.5,12.5,87.11,29.29,87.11,50c0,4.98-0.97,9.74-2.71,14.09c0.2,0.17,0.73,0.01,0.55,0.56
				c-0.22-0.08-0.5-0.09-0.69-0.2c-1.26,3.04-2.9,5.88-4.87,8.45c0.06-0.02,0.14-0.02,0.2-0.04c-0.01,0.14-0.17,0.12-0.28,0.15
				c-0.77,1-1.59,1.96-2.45,2.88c0.04,0.02,0.07,0.04,0.13,0.05c-0.05,0.2-0.13,0.09-0.23,0.05c-0.05,0.05-0.1,0.11-0.16,0.16
				c0.19,0.25-0.03,0.34-0.2,0.52c-0.03,0.42,0.95-0.18,0.72,0.44c-0.35-0.02-0.7-0.02-0.87,0.15c0.27,0.28,0.02,0.37,0,0.73
				c0.05,0.35,0.39-0.16,0.44-0.29c0.06-0.01,0.1,0,0.13,0.03c0.54-0.54,1.07-1.08,1.58-1.65c-0.17-0.07,0.14-0.25-0.12-0.28
				c0.03-0.16,0.29-0.1,0.29-0.29c0.1,0.02,0.13,0.12,0.13,0.23c0.26-0.3,0.51-0.61,0.76-0.92c-0.09,0.07-0.2,0.12-0.31,0.1
				c-0.18-0.2-0.19-0.55,0.15-0.59c-0.08-0.3-0.44-0.29-0.15-0.59c0.13-0.11,0.33-0.16,0.58-0.15c0.46,0.12-0.26,0.19-0.43,0.15
				v0.29c0.03,0.19,0.43,0.19,0.43,0c0.1,0.05,0.04,0.34-0.11,0.58c0.17-0.21,0.35-0.42,0.52-0.63c-0.06,0.02-0.11,0-0.13-0.09
				c0.03-0.15,0.19-0.15,0.26-0.08c0.12-0.15,0.24-0.3,0.35-0.45c-0.01-0.13,0.03-0.27,0.12-0.35c0.05,0.01,0.08,0.03,0.1,0.06
				c0.79-1.07,1.52-2.19,2.19-3.34c-0.21,0.03-0.43-0.05-0.55-0.24c0.02-0.37,0.47-0.3,0.85-0.29c3.21-5.67,5.05-12.22,5.05-19.2
				C88.38,41.23,85.48,33.14,80.61,26.63z M39.76,86.19c-0.24-0.07-0.49-0.14-0.74-0.25c-0.22-0.1-0.45-0.17-0.67-0.23
				c0-0.04-0.01-0.07-0.02-0.11c-0.65-0.22-1.3-0.45-1.93-0.71c-0.06,0.01-0.13,0.01-0.21-0.05c0-0.01,0.01-0.02,0.01-0.03
				c-0.04-0.02-0.08-0.03-0.11-0.04c0,0.07,0.01,0.14,0.03,0.21c-0.02,0.03-0.05,0.06-0.08,0.09c-0.12-0.19-0.34-0.31-0.59-0.24
				c-0.02,0-0.03,0.02-0.04,0.03c-0.14-0.03-0.26-0.07-0.42-0.03c-0.16,0.05-0.31,0.25-0.24,0.42c0.09,0.22,0.23,0.3,0.39,0.44
				c0.02,0.04,0.04,0.08,0.07,0.11c0.02,0.02,0.04,0.02,0.05,0.03c0.02,0.01,0.03,0.04,0.05,0.05c0.01,0,0.01,0,0.01,0.01v-0.02
				c0.09,0.05,0.2,0.07,0.3,0.07c0.36,0.15,0.71,0.29,1.08,0.43c0.04,0.01,0.08,0.02,0.12,0.03c0.48,0.36,1.01,0.62,1.68,0.78
				c0.5,0.12,1,0.25,1.48,0.24c0.61,0.17,1.22,0.33,1.84,0.47c0.18-0.22,0.43-0.37,0.53-0.66c0.3,0.01,0.37-0.15,0.48-0.27
				c0.05-0.06,0.11-0.1,0.16-0.14c-1.03-0.2-2.05-0.44-3.05-0.73C39.89,86.14,39.82,86.16,39.76,86.19z M33.68,83.76
				c-0.17-0.3-0.62-0.42-0.87-0.16c-0.13-0.14-0.23-0.32-0.42-0.44c-0.2-0.12-0.42-0.11-0.64-0.05c-0.05-0.08-0.11-0.14-0.17-0.09
				c-0.07,0.06-0.08,0.15-0.15,0.22c-0.15,0.14-0.06,0.38,0.11,0.44c0.21,0.07,0.4,0.22,0.6,0.33c0.14,0.08,0.29,0.09,0.45,0.11
				c-0.02,0.3,0.14,0.57,0.43,0.66c0.27,0.08,0.58,0.14,0.85,0.05c0.21-0.07,0.31-0.26,0.27-0.48
				C34.09,84.07,33.91,83.89,33.68,83.76z M32.6,84C32.59,83.87,32.61,83.92,32.6,84L32.6,84z"/>
		</g>
	</g>
	<g>
		<g>
			<path class="st1" d="M33.56,51.56c0,1.51-0.56,2.79-1.68,3.83c-1.12,1.05-2.47,1.57-4.06,1.57c-0.92,0-1.67-0.09-2.25-0.27
				l0.52-3.19c0.41,0.07,0.76,0.11,1.06,0.11c0.18,0.01,0.44,0.01,0.77-0.02c0.59-0.04,1.08-0.24,1.49-0.6
				c0.4-0.36,0.61-0.82,0.61-1.36v-17.6h3.55V51.56z"/>
			<path class="st1" d="M27.82,57.21c-0.94,0-1.72-0.1-2.32-0.28c-0.12-0.04-0.19-0.15-0.17-0.27l0.52-3.19
				c0.01-0.06,0.05-0.12,0.1-0.16c0.05-0.04,0.12-0.05,0.18-0.04c0.39,0.07,0.73,0.1,1.01,0.1c0.22,0.01,0.43,0.01,0.75-0.02
				c0.53-0.03,0.98-0.21,1.34-0.54c0.35-0.32,0.52-0.7,0.52-1.18v-17.6c0-0.13,0.11-0.24,0.24-0.24h3.55c0.13,0,0.24,0.11,0.24,0.24
				v17.53c0,1.58-0.59,2.93-1.76,4.01C30.89,56.66,29.46,57.21,27.82,57.21z M25.85,56.52c0.52,0.13,1.18,0.2,1.97,0.2
				c1.52,0,2.83-0.51,3.9-1.5c1.06-0.99,1.6-2.22,1.6-3.65V34.28h-3.07v17.36c0,0.62-0.23,1.13-0.69,1.54
				c-0.44,0.4-0.99,0.62-1.63,0.66c-0.35,0.02-0.61,0.03-0.8,0.02c-0.23-0.01-0.52-0.02-0.84-0.07L25.85,56.52z"/>
		</g>
		<g>
			<path class="st1" d="M40.71,51.49l-0.88,5.22h-3.78L40.14,34h4.99l4.03,22.72h-3.81l-0.85-5.22H40.71z M42.62,39.2l-1.34,8.96
				h2.69L42.62,39.2z"/>
			<path class="st1" d="M49.16,56.96h-3.81c-0.12,0-0.22-0.09-0.24-0.21l-0.82-5.02h-3.38l-0.85,5.02c-0.02,0.12-0.12,0.2-0.24,0.2
				h-3.78c-0.07,0-0.14-0.03-0.19-0.09c-0.05-0.06-0.07-0.13-0.05-0.2l4.09-22.72c0.02-0.12,0.12-0.2,0.24-0.2h4.99
				c0.12,0,0.22,0.09,0.24,0.2l4.03,22.72c0.01,0.07-0.01,0.14-0.05,0.2C49.3,56.92,49.24,56.96,49.16,56.96z M45.56,56.47h3.32
				l-3.94-22.23h-4.59l-4,22.23h3.28l0.85-5.02c0.02-0.12,0.12-0.2,0.24-0.2h3.79c0.12,0,0.22,0.09,0.24,0.21L45.56,56.47z
				 M43.96,48.4h-2.69c-0.07,0-0.14-0.03-0.18-0.09c-0.05-0.05-0.07-0.13-0.06-0.2l1.34-8.96c0.04-0.24,0.44-0.24,0.48,0l1.34,8.96
				c0.01,0.07-0.01,0.14-0.06,0.2C44.1,48.37,44.03,48.4,43.96,48.4z M41.56,47.91h2.12l-1.06-7.08L41.56,47.91z"/>
		</g>
		<g>
			<path class="st1" d="M52.74,56.71L48.44,34h3.8l3.02,17.71L58.3,34h3.8l-4.38,22.72H52.74z"/>
			<path class="st1" d="M57.73,56.96h-4.99c-0.12,0-0.22-0.08-0.24-0.2l-4.3-22.72c-0.01-0.07,0.01-0.15,0.05-0.2
				c0.05-0.06,0.11-0.09,0.19-0.09h3.8c0.12,0,0.22,0.09,0.24,0.2l2.78,16.31l2.8-16.31c0.02-0.12,0.12-0.2,0.24-0.2h3.8
				c0.07,0,0.14,0.03,0.19,0.09c0.05,0.06,0.06,0.13,0.05,0.2l-4.38,22.72C57.94,56.87,57.84,56.96,57.73,56.96z M52.94,56.47h4.59
				l4.28-22.23H58.5l-3.01,17.5c-0.02,0.12-0.12,0.2-0.24,0.2l0,0c-0.12,0-0.22-0.09-0.24-0.2l-2.98-17.5h-3.3L52.94,56.47z"/>
		</g>
		<g>
			<path class="st1" d="M65.97,51.49l-0.88,5.22h-3.78L65.4,34h4.99l4.03,22.72h-3.81l-0.85-5.22H65.97z M67.88,39.2l-1.34,8.96
				h2.69L67.88,39.2z"/>
			<path class="st1" d="M74.42,56.96h-3.81c-0.12,0-0.22-0.09-0.24-0.21l-0.82-5.02h-3.38l-0.85,5.02c-0.02,0.12-0.12,0.2-0.24,0.2
				h-3.78c-0.07,0-0.14-0.03-0.19-0.09c-0.05-0.06-0.07-0.13-0.05-0.2l4.09-22.72c0.02-0.12,0.12-0.2,0.24-0.2h4.99
				c0.12,0,0.22,0.09,0.24,0.2l4.03,22.72c0.01,0.07-0.01,0.14-0.05,0.2C74.56,56.92,74.5,56.96,74.42,56.96z M70.82,56.47h3.32
				l-3.94-22.23h-4.58l-4,22.23h3.28l0.85-5.02c0.02-0.12,0.12-0.2,0.24-0.2h3.79c0.12,0,0.22,0.09,0.24,0.21L70.82,56.47z
				 M69.22,48.4h-2.69c-0.07,0-0.14-0.03-0.18-0.09c-0.05-0.05-0.07-0.13-0.06-0.2l1.34-8.96c0.04-0.24,0.44-0.24,0.48,0l1.34,8.96
				c0.01,0.07-0.01,0.14-0.06,0.2C69.36,48.37,69.29,48.4,69.22,48.4z M66.82,47.91h2.12l-1.06-7.08L66.82,47.91z"/>
		</g>
	</g>
	<g>
		<path class="st1" d="M51.81,28.99c0,0.3,0.13,0.43,0.38,0.39c0.23-0.03,0.4-0.13,0.52-0.3c0.12-0.17,0.25-0.42,0.37-0.75
			l0.43-0.06c-0.26,0.8-0.58,1.38-0.97,1.75c-0.26,0.25-0.55,0.39-0.84,0.43c-0.49,0.07-0.83,0.01-1.03-0.19
			c-0.19-0.2-0.29-0.45-0.29-0.75c0-0.3,0.08-0.77,0.23-1.42c0.15-0.65,0.23-1.09,0.23-1.34c0-0.36-0.12-0.52-0.37-0.48
			c-0.25,0.04-0.46,0.25-0.64,0.65c-0.05,0.11-0.1,0.23-0.14,0.36l-0.63,3.49l-1.48,0.21L49,24.14c-0.22,0.02-0.44,0.02-0.66,0.02
			l-0.7,0l-1.45,7.02l-1.48,0.21l1.47-7.12c-0.64,0.12-1.13,0.34-1.47,0.68c-0.4,0.39-0.6,0.96-0.6,1.7v0.04
			c0,0.28,0.04,0.49,0.12,0.62c0.02,0.03,0.02,0.05,0.02,0.07c-0.55,0.08-0.89-0.05-1.03-0.39c-0.05-0.12-0.07-0.32-0.07-0.58
			c0-0.27,0.07-0.57,0.21-0.92c0.14-0.34,0.35-0.66,0.65-0.95c0.65-0.65,1.57-1.06,2.77-1.23c0.12-0.02,0.28-0.03,0.49-0.03
			c1.07,0,1.87-0.04,2.39-0.11c0.52-0.07,0.9-0.21,1.15-0.41l-0.18,0.38c-0.14,0.32-0.31,1-0.53,2.06l-0.16,0.82
			c0.34-0.45,0.74-0.71,1.23-0.78c0.32-0.05,0.6,0.01,0.81,0.16c0.22,0.15,0.33,0.4,0.33,0.75c0,0.35-0.05,0.77-0.17,1.24
			l-0.25,1.05C51.83,28.66,51.81,28.85,51.81,28.99z"/>
		<path class="st1" d="M54.46,28.21c0,0.58,0.22,0.83,0.65,0.77c0.19-0.03,0.4-0.11,0.62-0.26c0.22-0.14,0.42-0.3,0.58-0.47
			c-0.19,1.05-0.78,1.65-1.78,1.79c-0.48,0.07-0.87,0-1.16-0.22c-0.29-0.22-0.44-0.62-0.44-1.21c0-0.79,0.2-1.59,0.6-2.39
			c0.31-0.61,0.72-1.07,1.25-1.39c0.27-0.17,0.55-0.27,0.84-0.31c0.48-0.07,0.8-0.02,0.97,0.13c0.17,0.15,0.26,0.38,0.26,0.69
			c0,0.6-0.24,1.13-0.71,1.61c-0.47,0.48-1.03,0.79-1.66,0.92C54.47,27.99,54.46,28.1,54.46,28.21z M56.06,25.4
			c0-0.25-0.08-0.36-0.25-0.34c-0.32,0.06-0.64,0.49-0.94,1.28c-0.13,0.34-0.23,0.69-0.31,1.04c0.39-0.07,0.74-0.3,1.05-0.69
			C55.91,26.3,56.06,25.87,56.06,25.4z"/>
	</g>
</g>
</svg>
